solid set_bt_octs_4blocks
  facet normal 7.037956372e-01 5.256323507e-01 4.778936419e-01
    outer loop
      vertex -8.000000000e+00 -3.000000000e+00 -0.000000000e+00
      vertex -1.392304845e+00 -6.392304845e+00 -6.000000000e+00
      vertex -8.633974596e+00 0.000000000e+00 -2.366025404e+00
    endloop
  endfacet
  facet normal 5.256323507e-01 -7.037956372e-01 4.778936419e-01
    outer loop
      vertex 3.000000000e+00 -8.000000000e+00 -0.000000000e+00
      vertex 6.392304845e+00 -1.392304845e+00 6.000000000e+00
      vertex 0.000000000e+00 -8.633974596e+00 2.366025404e+00
    endloop
  endfacet
  facet normal -6.612248329e-01 -6.612248329e-01 -3.543493200e-01
    outer loop
      vertex -3.000000000e+00 -8.000000000e+00 -0.000000000e+00
      vertex -8.000000000e+00 -3.000000000e+00 -0.000000000e+00
      vertex -1.392304845e+00 -6.392304845e+00 -6.000000000e+00
    endloop
  endfacet
  facet normal -6.612248329e-01 -6.612248329e-01 3.543493200e-01
    outer loop
      vertex -3.000000000e+00 -8.000000000e+00 -0.000000000e+00
      vertex -6.392304845e+00 -1.392304845e+00 6.000000000e+00
      vertex -8.000000000e+00 -3.000000000e+00 -0.000000000e+00
    endloop
  endfacet
  facet normal 5.256323507e-01 7.037956372e-01 -4.778936419e-01
    outer loop
      vertex -3.000000000e+00 -8.000000000e+00 -0.000000000e+00
      vertex -6.392304845e+00 -1.392304845e+00 6.000000000e+00
      vertex 0.000000000e+00 -8.633974596e+00 2.366025404e+00
    endloop
  endfacet
  facet normal -7.037956372e-01 -5.256323507e-01 4.778936419e-01
    outer loop
      vertex 8.000000000e+00 3.000000000e+00 -0.000000000e+00
      vertex 1.392304845e+00 6.392304845e+00 -6.000000000e+00
      vertex 8.633974596e+00 0.000000000e+00 -2.366025404e+00
    endloop
  endfacet
  facet normal 3.706520292e-01 -6.567408444e-01 -6.567408444e-01
    outer loop
      vertex 0.000000000e+00 5.000000000e+00 6.000000000e+00
      vertex -6.392304845e+00 1.392304845e+00 6.000000000e+00
      vertex 0.000000000e+00 8.633974596e+00 2.366025404e+00
    endloop
  endfacet
  facet normal -6.612248329e-01 6.612248329e-01 -3.543493200e-01
    outer loop
      vertex 8.000000000e+00 -3.000000000e+00 -0.000000000e+00
      vertex 3.000000000e+00 -8.000000000e+00 -0.000000000e+00
      vertex 6.392304845e+00 -1.392304845e+00 6.000000000e+00
    endloop
  endfacet
  facet normal -6.612248329e-01 6.612248329e-01 3.543493200e-01
    outer loop
      vertex 8.000000000e+00 -3.000000000e+00 -0.000000000e+00
      vertex 1.392304845e+00 -6.392304845e+00 -6.000000000e+00
      vertex 3.000000000e+00 -8.000000000e+00 -0.000000000e+00
    endloop
  endfacet
  facet normal 7.037956372e-01 -5.256323507e-01 -4.778936419e-01
    outer loop
      vertex 8.000000000e+00 -3.000000000e+00 -0.000000000e+00
      vertex 1.392304845e+00 -6.392304845e+00 -6.000000000e+00
      vertex 8.633974596e+00 0.000000000e+00 -2.366025404e+00
    endloop
  endfacet
  facet normal -6.567408444e-01 -3.706520292e-01 -6.567408444e-01
    outer loop
      vertex -5.000000000e+00 -0.000000000e+00 -6.000000000e+00
      vertex -1.392304845e+00 -6.392304845e+00 -6.000000000e+00
      vertex -8.633974596e+00 0.000000000e+00 -2.366025404e+00
    endloop
  endfacet
  facet normal -6.612248329e-01 6.612248329e-01 3.543493200e-01
    outer loop
      vertex -3.000000000e+00 8.000000000e+00 -0.000000000e+00
      vertex -8.000000000e+00 3.000000000e+00 -0.000000000e+00
      vertex -6.392304845e+00 1.392304845e+00 6.000000000e+00
    endloop
  endfacet
  facet normal -5.256323507e-01 7.037956372e-01 4.778936419e-01
    outer loop
      vertex -3.000000000e+00 8.000000000e+00 -0.000000000e+00
      vertex -6.392304845e+00 1.392304845e+00 6.000000000e+00
      vertex 0.000000000e+00 8.633974596e+00 2.366025404e+00
    endloop
  endfacet
  facet normal -3.706520292e-01 6.567408444e-01 -6.567408444e-01
    outer loop
      vertex 0.000000000e+00 -5.000000000e+00 6.000000000e+00
      vertex 6.392304845e+00 -1.392304845e+00 6.000000000e+00
      vertex 0.000000000e+00 -8.633974596e+00 2.366025404e+00
    endloop
  endfacet
  facet normal -3.706520292e-01 -6.567408444e-01 6.567408444e-01
    outer loop
      vertex 0.000000000e+00 -5.000000000e+00 6.000000000e+00
      vertex -6.392304845e+00 -1.392304845e+00 6.000000000e+00
      vertex 0.000000000e+00 -8.633974596e+00 2.366025404e+00
    endloop
  endfacet
  facet normal 6.612248329e-01 6.612248329e-01 -3.543493200e-01
    outer loop
      vertex 3.000000000e+00 8.000000000e+00 -0.000000000e+00
      vertex 8.000000000e+00 3.000000000e+00 -0.000000000e+00
      vertex 1.392304845e+00 6.392304845e+00 -6.000000000e+00
    endloop
  endfacet
  facet normal 6.567408444e-01 3.706520292e-01 -6.567408444e-01
    outer loop
      vertex 5.000000000e+00 -0.000000000e+00 -6.000000000e+00
      vertex 1.392304845e+00 6.392304845e+00 -6.000000000e+00
      vertex 8.633974596e+00 0.000000000e+00 -2.366025404e+00
    endloop
  endfacet
  facet normal -6.567408444e-01 3.706520292e-01 6.567408444e-01
    outer loop
      vertex 5.000000000e+00 -0.000000000e+00 -6.000000000e+00
      vertex 1.392304845e+00 -6.392304845e+00 -6.000000000e+00
      vertex 8.633974596e+00 0.000000000e+00 -2.366025404e+00
    endloop
  endfacet
  facet normal 7.037956372e-01 -5.256323507e-01 4.778936419e-01
    outer loop
      vertex -1.392304845e+00 6.392304845e+00 -6.000000000e+00
      vertex -8.000000000e+00 3.000000000e+00 -0.000000000e+00
      vertex -8.633974596e+00 0.000000000e+00 -2.366025404e+00
    endloop
  endfacet
  facet normal -6.567408444e-01 3.706520292e-01 -6.567408444e-01
    outer loop
      vertex -1.392304845e+00 6.392304845e+00 -6.000000000e+00
      vertex -5.000000000e+00 -0.000000000e+00 -6.000000000e+00
      vertex -8.633974596e+00 0.000000000e+00 -2.366025404e+00
    endloop
  endfacet
  facet normal 6.612248329e-01 -6.612248329e-01 3.543493200e-01
    outer loop
      vertex -1.392304845e+00 6.392304845e+00 -6.000000000e+00
      vertex -3.000000000e+00 8.000000000e+00 -0.000000000e+00
      vertex -8.000000000e+00 3.000000000e+00 -0.000000000e+00
    endloop
  endfacet
  facet normal -3.706520292e-01 -6.567408444e-01 -6.567408444e-01
    outer loop
      vertex 6.392304845e+00 1.392304845e+00 6.000000000e+00
      vertex 0.000000000e+00 5.000000000e+00 6.000000000e+00
      vertex 0.000000000e+00 8.633974596e+00 2.366025404e+00
    endloop
  endfacet
  facet normal -6.612248329e-01 -6.612248329e-01 -3.543493200e-01
    outer loop
      vertex 6.392304845e+00 1.392304845e+00 6.000000000e+00
      vertex 3.000000000e+00 8.000000000e+00 -0.000000000e+00
      vertex 8.000000000e+00 3.000000000e+00 -0.000000000e+00
    endloop
  endfacet
  facet normal 5.256323507e-01 7.037956372e-01 4.778936419e-01
    outer loop
      vertex 6.392304845e+00 1.392304845e+00 6.000000000e+00
      vertex 3.000000000e+00 8.000000000e+00 -0.000000000e+00
      vertex 0.000000000e+00 8.633974596e+00 2.366025404e+00
    endloop
  endfacet
  facet normal -9.659258263e-01 -1.208657738e-16 2.588190451e-01
    outer loop
      vertex -6.392304845e+00 -1.392304845e+00 6.000000000e+00
      vertex -8.000000000e+00 3.000000000e+00 -0.000000000e+00
      vertex -8.633974596e+00 0.000000000e+00 -2.366025404e+00
    endloop
  endfacet
  facet normal 9.659258263e-01 -1.573877218e-16 -2.588190451e-01
    outer loop
      vertex -6.392304845e+00 -1.392304845e+00 6.000000000e+00
      vertex -8.000000000e+00 -3.000000000e+00 -0.000000000e+00
      vertex -8.633974596e+00 0.000000000e+00 -2.366025404e+00
    endloop
  endfacet
  facet normal 9.659258263e-01 0.000000000e+00 -2.588190451e-01
    outer loop
      vertex -6.392304845e+00 -1.392304845e+00 6.000000000e+00
      vertex -8.000000000e+00 3.000000000e+00 -0.000000000e+00
      vertex -6.392304845e+00 1.392304845e+00 6.000000000e+00
    endloop
  endfacet
  facet normal 3.021644346e-16 9.659258263e-01 2.588190451e-01
    outer loop
      vertex 1.392304845e+00 -6.392304845e+00 -6.000000000e+00
      vertex -3.000000000e+00 -8.000000000e+00 -0.000000000e+00
      vertex 0.000000000e+00 -8.633974596e+00 2.366025404e+00
    endloop
  endfacet
  facet normal 3.934693044e-16 -9.659258263e-01 -2.588190451e-01
    outer loop
      vertex 1.392304845e+00 -6.392304845e+00 -6.000000000e+00
      vertex 3.000000000e+00 -8.000000000e+00 -0.000000000e+00
      vertex 0.000000000e+00 -8.633974596e+00 2.366025404e+00
    endloop
  endfacet
  facet normal -0.000000000e+00 -9.659258263e-01 -2.588190451e-01
    outer loop
      vertex 1.392304845e+00 -6.392304845e+00 -6.000000000e+00
      vertex -3.000000000e+00 -8.000000000e+00 -0.000000000e+00
      vertex -1.392304845e+00 -6.392304845e+00 -6.000000000e+00
    endloop
  endfacet
  facet normal 0.000000000e+00 0.000000000e+00 -1.000000000e+00
    outer loop
      vertex -1.392304845e+00 6.392304845e+00 -6.000000000e+00
      vertex 1.392304845e+00 -6.392304845e+00 -6.000000000e+00
      vertex -1.392304845e+00 -6.392304845e+00 -6.000000000e+00
    endloop
  endfacet
  facet normal -0.000000000e+00 0.000000000e+00 1.000000000e+00
    outer loop
      vertex -1.392304845e+00 6.392304845e+00 -6.000000000e+00
      vertex 5.000000000e+00 -0.000000000e+00 -6.000000000e+00
      vertex 1.392304845e+00 6.392304845e+00 -6.000000000e+00
    endloop
  endfacet
  facet normal 0.000000000e+00 0.000000000e+00 1.000000000e+00
    outer loop
      vertex -1.392304845e+00 6.392304845e+00 -6.000000000e+00
      vertex -5.000000000e+00 -0.000000000e+00 -6.000000000e+00
      vertex -1.392304845e+00 -6.392304845e+00 -6.000000000e+00
    endloop
  endfacet
  facet normal 0.000000000e+00 0.000000000e+00 -1.000000000e+00
    outer loop
      vertex -1.392304845e+00 6.392304845e+00 -6.000000000e+00
      vertex 5.000000000e+00 -0.000000000e+00 -6.000000000e+00
      vertex 1.392304845e+00 -6.392304845e+00 -6.000000000e+00
    endloop
  endfacet
  facet normal 0.000000000e+00 9.659258263e-01 -2.588190451e-01
    outer loop
      vertex -1.392304845e+00 6.392304845e+00 -6.000000000e+00
      vertex 3.000000000e+00 8.000000000e+00 -0.000000000e+00
      vertex 1.392304845e+00 6.392304845e+00 -6.000000000e+00
    endloop
  endfacet
  facet normal -3.021644346e-16 -9.659258263e-01 2.588190451e-01
    outer loop
      vertex -1.392304845e+00 6.392304845e+00 -6.000000000e+00
      vertex 3.000000000e+00 8.000000000e+00 -0.000000000e+00
      vertex 0.000000000e+00 8.633974596e+00 2.366025404e+00
    endloop
  endfacet
  facet normal -3.934693044e-16 9.659258263e-01 -2.588190451e-01
    outer loop
      vertex -1.392304845e+00 6.392304845e+00 -6.000000000e+00
      vertex -3.000000000e+00 8.000000000e+00 -0.000000000e+00
      vertex 0.000000000e+00 8.633974596e+00 2.366025404e+00
    endloop
  endfacet
  facet normal 9.659258263e-01 1.208657738e-16 2.588190451e-01
    outer loop
      vertex 6.392304845e+00 1.392304845e+00 6.000000000e+00
      vertex 8.000000000e+00 -3.000000000e+00 -0.000000000e+00
      vertex 8.633974596e+00 0.000000000e+00 -2.366025404e+00
    endloop
  endfacet
  facet normal -9.659258263e-01 1.573877218e-16 -2.588190451e-01
    outer loop
      vertex 6.392304845e+00 1.392304845e+00 6.000000000e+00
      vertex 8.000000000e+00 3.000000000e+00 -0.000000000e+00
      vertex 8.633974596e+00 0.000000000e+00 -2.366025404e+00
    endloop
  endfacet
  facet normal -9.659258263e-01 -0.000000000e+00 -2.588190451e-01
    outer loop
      vertex 6.392304845e+00 1.392304845e+00 6.000000000e+00
      vertex 8.000000000e+00 -3.000000000e+00 -0.000000000e+00
      vertex 6.392304845e+00 -1.392304845e+00 6.000000000e+00
    endloop
  endfacet
  facet normal -0.000000000e+00 0.000000000e+00 -1.000000000e+00
    outer loop
      vertex 6.392304845e+00 1.392304845e+00 6.000000000e+00
      vertex -6.392304845e+00 -1.392304845e+00 6.000000000e+00
      vertex -6.392304845e+00 1.392304845e+00 6.000000000e+00
    endloop
  endfacet
  facet normal 0.000000000e+00 0.000000000e+00 1.000000000e+00
    outer loop
      vertex 6.392304845e+00 1.392304845e+00 6.000000000e+00
      vertex 0.000000000e+00 -5.000000000e+00 6.000000000e+00
      vertex 6.392304845e+00 -1.392304845e+00 6.000000000e+00
    endloop
  endfacet
  facet normal 0.000000000e+00 0.000000000e+00 1.000000000e+00
    outer loop
      vertex 6.392304845e+00 1.392304845e+00 6.000000000e+00
      vertex 0.000000000e+00 5.000000000e+00 6.000000000e+00
      vertex -6.392304845e+00 1.392304845e+00 6.000000000e+00
    endloop
  endfacet
  facet normal 0.000000000e+00 0.000000000e+00 -1.000000000e+00
    outer loop
      vertex 6.392304845e+00 1.392304845e+00 6.000000000e+00
      vertex 0.000000000e+00 -5.000000000e+00 6.000000000e+00
      vertex -6.392304845e+00 -1.392304845e+00 6.000000000e+00
    endloop
  endfacet
  facet normal -5.256323507e-01 -7.037956372e-01 4.778936419e-01
    outer loop
      vertex 6.392304845e+00 1.739230485e+01 -6.000000000e+00
      vertex 3.000000000e+00 2.400000000e+01 -0.000000000e+00
      vertex 3.076740298e-15 2.463397460e+01 -2.366025404e+00
    endloop
  endfacet
  facet normal 6.612248329e-01 -6.612248329e-01 -3.543493200e-01
    outer loop
      vertex -8.000000000e+00 1.900000000e+01 -0.000000000e+00
      vertex -3.000000000e+00 2.400000000e+01 -0.000000000e+00
      vertex -1.392304845e+00 2.239230485e+01 6.000000000e+00
    endloop
  endfacet
  facet normal 7.037956372e-01 -5.256323507e-01 -4.778936419e-01
    outer loop
      vertex -8.000000000e+00 1.900000000e+01 -0.000000000e+00
      vertex -1.392304845e+00 2.239230485e+01 6.000000000e+00
      vertex -8.633974596e+00 1.600000000e+01 2.366025404e+00
    endloop
  endfacet
  facet normal -6.567408444e-01 3.706520292e-01 6.567408444e-01
    outer loop
      vertex -5.000000000e+00 1.600000000e+01 6.000000000e+00
      vertex -1.392304845e+00 2.239230485e+01 6.000000000e+00
      vertex -8.633974596e+00 1.600000000e+01 2.366025404e+00
    endloop
  endfacet
  facet normal -6.612248329e-01 -6.612248329e-01 -3.543493200e-01
    outer loop
      vertex -3.000000000e+00 8.000000000e+00 -0.000000000e+00
      vertex -8.000000000e+00 1.300000000e+01 -0.000000000e+00
      vertex -6.392304845e+00 1.460769515e+01 -6.000000000e+00
    endloop
  endfacet
  facet normal -5.256323507e-01 -7.037956372e-01 -4.778936419e-01
    outer loop
      vertex -3.000000000e+00 8.000000000e+00 -0.000000000e+00
      vertex -6.392304845e+00 1.460769515e+01 -6.000000000e+00
      vertex -0.000000000e+00 7.366025404e+00 -2.366025404e+00
    endloop
  endfacet
  facet normal -3.706520292e-01 -6.567408444e-01 6.567408444e-01
    outer loop
      vertex -0.000000000e+00 2.100000000e+01 -6.000000000e+00
      vertex 6.392304845e+00 1.739230485e+01 -6.000000000e+00
      vertex 3.076740298e-15 2.463397460e+01 -2.366025404e+00
    endloop
  endfacet
  facet normal 6.612248329e-01 6.612248329e-01 -3.543493200e-01
    outer loop
      vertex 8.000000000e+00 1.900000000e+01 -0.000000000e+00
      vertex 6.392304845e+00 1.739230485e+01 -6.000000000e+00
      vertex 3.000000000e+00 2.400000000e+01 -0.000000000e+00
    endloop
  endfacet
  facet normal -6.612248329e-01 -6.612248329e-01 -3.543493200e-01
    outer loop
      vertex 8.000000000e+00 1.900000000e+01 -0.000000000e+00
      vertex 1.392304845e+00 2.239230485e+01 6.000000000e+00
      vertex 3.000000000e+00 2.400000000e+01 -0.000000000e+00
    endloop
  endfacet
  facet normal 7.037956372e-01 5.256323507e-01 4.778936419e-01
    outer loop
      vertex 8.000000000e+00 1.900000000e+01 -0.000000000e+00
      vertex 1.392304845e+00 2.239230485e+01 6.000000000e+00
      vertex 8.633974596e+00 1.600000000e+01 2.366025404e+00
    endloop
  endfacet
  facet normal 3.706520292e-01 6.567408444e-01 6.567408444e-01
    outer loop
      vertex -0.000000000e+00 1.100000000e+01 -6.000000000e+00
      vertex -6.392304845e+00 1.460769515e+01 -6.000000000e+00
      vertex -0.000000000e+00 7.366025404e+00 -2.366025404e+00
    endloop
  endfacet
  facet normal 6.567408444e-01 -3.706520292e-01 6.567408444e-01
    outer loop
      vertex 5.000000000e+00 1.600000000e+01 6.000000000e+00
      vertex 1.392304845e+00 9.607695155e+00 6.000000000e+00
      vertex 8.633974596e+00 1.600000000e+01 2.366025404e+00
    endloop
  endfacet
  facet normal -6.567408444e-01 -3.706520292e-01 -6.567408444e-01
    outer loop
      vertex 5.000000000e+00 1.600000000e+01 6.000000000e+00
      vertex 1.392304845e+00 2.239230485e+01 6.000000000e+00
      vertex 8.633974596e+00 1.600000000e+01 2.366025404e+00
    endloop
  endfacet
  facet normal -6.612248329e-01 6.612248329e-01 -3.543493200e-01
    outer loop
      vertex 8.000000000e+00 1.300000000e+01 -0.000000000e+00
      vertex 3.000000000e+00 8.000000000e+00 -0.000000000e+00
      vertex 1.392304845e+00 9.607695155e+00 6.000000000e+00
    endloop
  endfacet
  facet normal -7.037956372e-01 5.256323507e-01 -4.778936419e-01
    outer loop
      vertex 8.000000000e+00 1.300000000e+01 -0.000000000e+00
      vertex 1.392304845e+00 9.607695155e+00 6.000000000e+00
      vertex 8.633974596e+00 1.600000000e+01 2.366025404e+00
    endloop
  endfacet
  facet normal 7.037956372e-01 5.256323507e-01 -4.778936419e-01
    outer loop
      vertex -1.392304845e+00 9.607695155e+00 6.000000000e+00
      vertex -8.000000000e+00 1.300000000e+01 -0.000000000e+00
      vertex -8.633974596e+00 1.600000000e+01 2.366025404e+00
    endloop
  endfacet
  facet normal -6.567408444e-01 -3.706520292e-01 6.567408444e-01
    outer loop
      vertex -1.392304845e+00 9.607695155e+00 6.000000000e+00
      vertex -5.000000000e+00 1.600000000e+01 6.000000000e+00
      vertex -8.633974596e+00 1.600000000e+01 2.366025404e+00
    endloop
  endfacet
  facet normal 6.612248329e-01 6.612248329e-01 -3.543493200e-01
    outer loop
      vertex -1.392304845e+00 9.607695155e+00 6.000000000e+00
      vertex -3.000000000e+00 8.000000000e+00 -0.000000000e+00
      vertex -8.000000000e+00 1.300000000e+01 -0.000000000e+00
    endloop
  endfacet
  facet normal -5.256323507e-01 7.037956372e-01 -4.778936419e-01
    outer loop
      vertex -6.392304845e+00 1.739230485e+01 -6.000000000e+00
      vertex -3.000000000e+00 2.400000000e+01 -0.000000000e+00
      vertex 3.076740298e-15 2.463397460e+01 -2.366025404e+00
    endloop
  endfacet
  facet normal -6.612248329e-01 6.612248329e-01 -3.543493200e-01
    outer loop
      vertex -6.392304845e+00 1.739230485e+01 -6.000000000e+00
      vertex -8.000000000e+00 1.900000000e+01 -0.000000000e+00
      vertex -3.000000000e+00 2.400000000e+01 -0.000000000e+00
    endloop
  endfacet
  facet normal 3.706520292e-01 -6.567408444e-01 6.567408444e-01
    outer loop
      vertex -6.392304845e+00 1.739230485e+01 -6.000000000e+00
      vertex -0.000000000e+00 2.100000000e+01 -6.000000000e+00
      vertex 3.076740298e-15 2.463397460e+01 -2.366025404e+00
    endloop
  endfacet
  facet normal 5.256323507e-01 -7.037956372e-01 -4.778936419e-01
    outer loop
      vertex 6.392304845e+00 1.460769515e+01 -6.000000000e+00
      vertex 3.000000000e+00 8.000000000e+00 -0.000000000e+00
      vertex -0.000000000e+00 7.366025404e+00 -2.366025404e+00
    endloop
  endfacet
  facet normal -3.706520292e-01 6.567408444e-01 6.567408444e-01
    outer loop
      vertex 6.392304845e+00 1.460769515e+01 -6.000000000e+00
      vertex -0.000000000e+00 1.100000000e+01 -6.000000000e+00
      vertex -0.000000000e+00 7.366025404e+00 -2.366025404e+00
    endloop
  endfacet
  facet normal 6.612248329e-01 -6.612248329e-01 -3.543493200e-01
    outer loop
      vertex 6.392304845e+00 1.460769515e+01 -6.000000000e+00
      vertex 8.000000000e+00 1.300000000e+01 -0.000000000e+00
      vertex 3.000000000e+00 8.000000000e+00 -0.000000000e+00
    endloop
  endfacet
  facet normal 1.232365853e-15 9.659258263e-01 2.588190451e-01
    outer loop
      vertex 1.392304845e+00 2.239230485e+01 6.000000000e+00
      vertex -3.000000000e+00 2.400000000e+01 -0.000000000e+00
      vertex -1.392304845e+00 2.239230485e+01 6.000000000e+00
    endloop
  endfacet
  facet normal 3.625973215e-16 -9.659258263e-01 -2.588190451e-01
    outer loop
      vertex 1.392304845e+00 2.239230485e+01 6.000000000e+00
      vertex -3.000000000e+00 2.400000000e+01 -0.000000000e+00
      vertex 3.076740298e-15 2.463397460e+01 -2.366025404e+00
    endloop
  endfacet
  facet normal -8.656324697e-16 9.659258263e-01 2.588190451e-01
    outer loop
      vertex 1.392304845e+00 2.239230485e+01 6.000000000e+00
      vertex 3.000000000e+00 2.400000000e+01 -0.000000000e+00
      vertex 3.076740298e-15 2.463397460e+01 -2.366025404e+00
    endloop
  endfacet
  facet normal 0.000000000e+00 -0.000000000e+00 1.000000000e+00
    outer loop
      vertex -1.392304845e+00 9.607695155e+00 6.000000000e+00
      vertex 1.392304845e+00 2.239230485e+01 6.000000000e+00
      vertex -1.392304845e+00 2.239230485e+01 6.000000000e+00
    endloop
  endfacet
  facet normal 0.000000000e+00 0.000000000e+00 -1.000000000e+00
    outer loop
      vertex -1.392304845e+00 9.607695155e+00 6.000000000e+00
      vertex 5.000000000e+00 1.600000000e+01 6.000000000e+00
      vertex 1.392304845e+00 9.607695155e+00 6.000000000e+00
    endloop
  endfacet
  facet normal 0.000000000e+00 0.000000000e+00 -1.000000000e+00
    outer loop
      vertex -1.392304845e+00 9.607695155e+00 6.000000000e+00
      vertex -5.000000000e+00 1.600000000e+01 6.000000000e+00
      vertex -1.392304845e+00 2.239230485e+01 6.000000000e+00
    endloop
  endfacet
  facet normal 0.000000000e+00 0.000000000e+00 1.000000000e+00
    outer loop
      vertex -1.392304845e+00 9.607695155e+00 6.000000000e+00
      vertex 5.000000000e+00 1.600000000e+01 6.000000000e+00
      vertex 1.392304845e+00 2.239230485e+01 6.000000000e+00
    endloop
  endfacet
  facet normal 6.295508870e-16 -9.659258263e-01 2.588190451e-01
    outer loop
      vertex -1.392304845e+00 9.607695155e+00 6.000000000e+00
      vertex -3.000000000e+00 8.000000000e+00 -0.000000000e+00
      vertex -0.000000000e+00 7.366025404e+00 -2.366025404e+00
    endloop
  endfacet
  facet normal 4.834630953e-16 9.659258263e-01 -2.588190451e-01
    outer loop
      vertex -1.392304845e+00 9.607695155e+00 6.000000000e+00
      vertex 3.000000000e+00 8.000000000e+00 -0.000000000e+00
      vertex -0.000000000e+00 7.366025404e+00 -2.366025404e+00
    endloop
  endfacet
  facet normal 6.161829263e-16 -9.659258263e-01 2.588190451e-01
    outer loop
      vertex -1.392304845e+00 9.607695155e+00 6.000000000e+00
      vertex 3.000000000e+00 8.000000000e+00 -0.000000000e+00
      vertex 1.392304845e+00 9.607695155e+00 6.000000000e+00
    endloop
  endfacet
  facet normal 9.659258263e-01 0.000000000e+00 2.588190451e-01
    outer loop
      vertex -6.392304845e+00 1.739230485e+01 -6.000000000e+00
      vertex -8.000000000e+00 1.300000000e+01 -0.000000000e+00
      vertex -6.392304845e+00 1.460769515e+01 -6.000000000e+00
    endloop
  endfacet
  facet normal -9.659258263e-01 3.625973215e-16 -2.588190451e-01
    outer loop
      vertex -6.392304845e+00 1.739230485e+01 -6.000000000e+00
      vertex -8.000000000e+00 1.300000000e+01 -0.000000000e+00
      vertex -8.633974596e+00 1.600000000e+01 2.366025404e+00
    endloop
  endfacet
  facet normal 9.659258263e-01 -2.360815826e-16 2.588190451e-01
    outer loop
      vertex -6.392304845e+00 1.739230485e+01 -6.000000000e+00
      vertex -8.000000000e+00 1.900000000e+01 -0.000000000e+00
      vertex -8.633974596e+00 1.600000000e+01 2.366025404e+00
    endloop
  endfacet
  facet normal 0.000000000e+00 0.000000000e+00 -1.000000000e+00
    outer loop
      vertex 6.392304845e+00 1.460769515e+01 -6.000000000e+00
      vertex -0.000000000e+00 1.100000000e+01 -6.000000000e+00
      vertex -6.392304845e+00 1.460769515e+01 -6.000000000e+00
    endloop
  endfacet
  facet normal 0.000000000e+00 0.000000000e+00 1.000000000e+00
    outer loop
      vertex 6.392304845e+00 1.460769515e+01 -6.000000000e+00
      vertex -6.392304845e+00 1.739230485e+01 -6.000000000e+00
      vertex -6.392304845e+00 1.460769515e+01 -6.000000000e+00
    endloop
  endfacet
  facet normal 0.000000000e+00 0.000000000e+00 -1.000000000e+00
    outer loop
      vertex 6.392304845e+00 1.460769515e+01 -6.000000000e+00
      vertex -0.000000000e+00 2.100000000e+01 -6.000000000e+00
      vertex 6.392304845e+00 1.739230485e+01 -6.000000000e+00
    endloop
  endfacet
  facet normal 0.000000000e+00 0.000000000e+00 -1.000000000e+00
    outer loop
      vertex 6.392304845e+00 1.460769515e+01 -6.000000000e+00
      vertex -6.392304845e+00 1.739230485e+01 -6.000000000e+00
      vertex -0.000000000e+00 2.100000000e+01 -6.000000000e+00
    endloop
  endfacet
  facet normal -9.659258263e-01 4.721631653e-16 2.588190451e-01
    outer loop
      vertex 6.392304845e+00 1.460769515e+01 -6.000000000e+00
      vertex 8.000000000e+00 1.300000000e+01 -0.000000000e+00
      vertex 8.633974596e+00 1.600000000e+01 2.366025404e+00
    endloop
  endfacet
  facet normal 9.659258263e-01 3.625973215e-16 -2.588190451e-01
    outer loop
      vertex 6.392304845e+00 1.460769515e+01 -6.000000000e+00
      vertex 8.000000000e+00 1.900000000e+01 -0.000000000e+00
      vertex 8.633974596e+00 1.600000000e+01 2.366025404e+00
    endloop
  endfacet
  facet normal -9.659258263e-01 0.000000000e+00 2.588190451e-01
    outer loop
      vertex 6.392304845e+00 1.460769515e+01 -6.000000000e+00
      vertex 8.000000000e+00 1.900000000e+01 -0.000000000e+00
      vertex 6.392304845e+00 1.739230485e+01 -6.000000000e+00
    endloop
  endfacet
  facet normal -5.256323507e-01 7.037956372e-01 -4.778936419e-01
    outer loop
      vertex 1.439230485e+01 6.607695155e+00 1.200000000e+01
      vertex 1.100000000e+01 -2.220446049e-16 6.000000000e+00
      vertex 8.000000000e+00 -6.339745962e-01 8.366025404e+00
    endloop
  endfacet
  facet normal 6.612248329e-01 6.612248329e-01 3.543493200e-01
    outer loop
      vertex 0.000000000e+00 5.000000000e+00 6.000000000e+00
      vertex 5.000000000e+00 -0.000000000e+00 6.000000000e+00
      vertex 6.607695155e+00 1.607695155e+00 -0.000000000e+00
    endloop
  endfacet
  facet normal 7.037956372e-01 5.256323507e-01 4.778936419e-01
    outer loop
      vertex 0.000000000e+00 5.000000000e+00 6.000000000e+00
      vertex 6.607695155e+00 1.607695155e+00 -0.000000000e+00
      vertex -6.339745962e-01 8.000000000e+00 3.633974596e+00
    endloop
  endfacet
  facet normal -6.567408444e-01 -3.706520292e-01 -6.567408444e-01
    outer loop
      vertex 3.000000000e+00 8.000000000e+00 -0.000000000e+00
      vertex 6.607695155e+00 1.607695155e+00 -0.000000000e+00
      vertex -6.339745962e-01 8.000000000e+00 3.633974596e+00
    endloop
  endfacet
  facet normal -6.612248329e-01 6.612248329e-01 3.543493200e-01
    outer loop
      vertex 5.000000000e+00 1.600000000e+01 6.000000000e+00
      vertex 4.440892099e-16 1.100000000e+01 6.000000000e+00
      vertex 1.607695155e+00 9.392304845e+00 1.200000000e+01
    endloop
  endfacet
  facet normal -5.256323507e-01 7.037956372e-01 4.778936419e-01
    outer loop
      vertex 5.000000000e+00 1.600000000e+01 6.000000000e+00
      vertex 1.607695155e+00 9.392304845e+00 1.200000000e+01
      vertex 8.000000000e+00 1.663397460e+01 8.366025404e+00
    endloop
  endfacet
  facet normal -3.706520292e-01 6.567408444e-01 -6.567408444e-01
    outer loop
      vertex 8.000000000e+00 3.000000000e+00 1.200000000e+01
      vertex 1.439230485e+01 6.607695155e+00 1.200000000e+01
      vertex 8.000000000e+00 -6.339745962e-01 8.366025404e+00
    endloop
  endfacet
  facet normal 6.612248329e-01 -6.612248329e-01 3.543493200e-01
    outer loop
      vertex 1.600000000e+01 5.000000000e+00 6.000000000e+00
      vertex 1.439230485e+01 6.607695155e+00 1.200000000e+01
      vertex 1.100000000e+01 -2.220446049e-16 6.000000000e+00
    endloop
  endfacet
  facet normal -6.612248329e-01 6.612248329e-01 3.543493200e-01
    outer loop
      vertex 1.600000000e+01 5.000000000e+00 6.000000000e+00
      vertex 9.392304845e+00 1.607695155e+00 -0.000000000e+00
      vertex 1.100000000e+01 -2.220446049e-16 6.000000000e+00
    endloop
  endfacet
  facet normal 7.037956372e-01 -5.256323507e-01 -4.778936419e-01
    outer loop
      vertex 1.600000000e+01 5.000000000e+00 6.000000000e+00
      vertex 9.392304845e+00 1.607695155e+00 -0.000000000e+00
      vertex 1.663397460e+01 8.000000000e+00 3.633974596e+00
    endloop
  endfacet
  facet normal 3.706520292e-01 -6.567408444e-01 -6.567408444e-01
    outer loop
      vertex 8.000000000e+00 1.300000000e+01 1.200000000e+01
      vertex 1.607695155e+00 9.392304845e+00 1.200000000e+01
      vertex 8.000000000e+00 1.663397460e+01 8.366025404e+00
    endloop
  endfacet
  facet normal 6.567408444e-01 3.706520292e-01 -6.567408444e-01
    outer loop
      vertex 1.300000000e+01 8.000000000e+00 -0.000000000e+00
      vertex 9.392304845e+00 1.439230485e+01 -0.000000000e+00
      vertex 1.663397460e+01 8.000000000e+00 3.633974596e+00
    endloop
  endfacet
  facet normal -6.567408444e-01 3.706520292e-01 6.567408444e-01
    outer loop
      vertex 1.300000000e+01 8.000000000e+00 -0.000000000e+00
      vertex 9.392304845e+00 1.607695155e+00 -0.000000000e+00
      vertex 1.663397460e+01 8.000000000e+00 3.633974596e+00
    endloop
  endfacet
  facet normal -6.612248329e-01 -6.612248329e-01 3.543493200e-01
    outer loop
      vertex 1.600000000e+01 1.100000000e+01 6.000000000e+00
      vertex 1.100000000e+01 1.600000000e+01 6.000000000e+00
      vertex 9.392304845e+00 1.439230485e+01 -0.000000000e+00
    endloop
  endfacet
  facet normal -7.037956372e-01 -5.256323507e-01 4.778936419e-01
    outer loop
      vertex 1.600000000e+01 1.100000000e+01 6.000000000e+00
      vertex 9.392304845e+00 1.439230485e+01 -0.000000000e+00
      vertex 1.663397460e+01 8.000000000e+00 3.633974596e+00
    endloop
  endfacet
  facet normal 7.037956372e-01 -5.256323507e-01 4.778936419e-01
    outer loop
      vertex 6.607695155e+00 1.439230485e+01 -0.000000000e+00
      vertex 4.440892099e-16 1.100000000e+01 6.000000000e+00
      vertex -6.339745962e-01 8.000000000e+00 3.633974596e+00
    endloop
  endfacet
  facet normal -6.567408444e-01 3.706520292e-01 -6.567408444e-01
    outer loop
      vertex 6.607695155e+00 1.439230485e+01 -0.000000000e+00
      vertex 3.000000000e+00 8.000000000e+00 -0.000000000e+00
      vertex -6.339745962e-01 8.000000000e+00 3.633974596e+00
    endloop
  endfacet
  facet normal 6.612248329e-01 -6.612248329e-01 3.543493200e-01
    outer loop
      vertex 6.607695155e+00 1.439230485e+01 -0.000000000e+00
      vertex 5.000000000e+00 1.600000000e+01 6.000000000e+00
      vertex 4.440892099e-16 1.100000000e+01 6.000000000e+00
    endloop
  endfacet
  facet normal -5.256323507e-01 -7.037956372e-01 4.778936419e-01
    outer loop
      vertex 1.607695155e+00 6.607695155e+00 1.200000000e+01
      vertex 5.000000000e+00 -0.000000000e+00 6.000000000e+00
      vertex 8.000000000e+00 -6.339745962e-01 8.366025404e+00
    endloop
  endfacet
  facet normal -6.612248329e-01 -6.612248329e-01 3.543493200e-01
    outer loop
      vertex 1.607695155e+00 6.607695155e+00 1.200000000e+01
      vertex 0.000000000e+00 5.000000000e+00 6.000000000e+00
      vertex 5.000000000e+00 -0.000000000e+00 6.000000000e+00
    endloop
  endfacet
  facet normal 3.706520292e-01 6.567408444e-01 -6.567408444e-01
    outer loop
      vertex 1.607695155e+00 6.607695155e+00 1.200000000e+01
      vertex 8.000000000e+00 3.000000000e+00 1.200000000e+01
      vertex 8.000000000e+00 -6.339745962e-01 8.366025404e+00
    endloop
  endfacet
  facet normal 5.256323507e-01 7.037956372e-01 4.778936419e-01
    outer loop
      vertex 1.439230485e+01 9.392304845e+00 1.200000000e+01
      vertex 1.100000000e+01 1.600000000e+01 6.000000000e+00
      vertex 8.000000000e+00 1.663397460e+01 8.366025404e+00
    endloop
  endfacet
  facet normal -3.706520292e-01 -6.567408444e-01 -6.567408444e-01
    outer loop
      vertex 1.439230485e+01 9.392304845e+00 1.200000000e+01
      vertex 8.000000000e+00 1.300000000e+01 1.200000000e+01
      vertex 8.000000000e+00 1.663397460e+01 8.366025404e+00
    endloop
  endfacet
  facet normal 6.612248329e-01 6.612248329e-01 3.543493200e-01
    outer loop
      vertex 1.439230485e+01 9.392304845e+00 1.200000000e+01
      vertex 1.600000000e+01 1.100000000e+01 6.000000000e+00
      vertex 1.100000000e+01 1.600000000e+01 6.000000000e+00
    endloop
  endfacet
  facet normal -0.000000000e+00 -9.659258263e-01 -2.588190451e-01
    outer loop
      vertex 9.392304845e+00 1.607695155e+00 -0.000000000e+00
      vertex 5.000000000e+00 -0.000000000e+00 6.000000000e+00
      vertex 6.607695155e+00 1.607695155e+00 -0.000000000e+00
    endloop
  endfacet
  facet normal 1.812986607e-16 9.659258263e-01 2.588190451e-01
    outer loop
      vertex 9.392304845e+00 1.607695155e+00 -0.000000000e+00
      vertex 5.000000000e+00 -0.000000000e+00 6.000000000e+00
      vertex 8.000000000e+00 -6.339745962e-01 8.366025404e+00
    endloop
  endfacet
  facet normal 2.360815826e-16 -9.659258263e-01 -2.588190451e-01
    outer loop
      vertex 9.392304845e+00 1.607695155e+00 -0.000000000e+00
      vertex 1.100000000e+01 -2.220446049e-16 6.000000000e+00
      vertex 8.000000000e+00 -6.339745962e-01 8.366025404e+00
    endloop
  endfacet
  facet normal 0.000000000e+00 0.000000000e+00 -1.000000000e+00
    outer loop
      vertex 6.607695155e+00 1.439230485e+01 -0.000000000e+00
      vertex 9.392304845e+00 1.607695155e+00 -0.000000000e+00
      vertex 6.607695155e+00 1.607695155e+00 -0.000000000e+00
    endloop
  endfacet
  facet normal -0.000000000e+00 0.000000000e+00 1.000000000e+00
    outer loop
      vertex 6.607695155e+00 1.439230485e+01 -0.000000000e+00
      vertex 1.300000000e+01 8.000000000e+00 -0.000000000e+00
      vertex 9.392304845e+00 1.439230485e+01 -0.000000000e+00
    endloop
  endfacet
  facet normal 0.000000000e+00 0.000000000e+00 1.000000000e+00
    outer loop
      vertex 6.607695155e+00 1.439230485e+01 -0.000000000e+00
      vertex 3.000000000e+00 8.000000000e+00 -0.000000000e+00
      vertex 6.607695155e+00 1.607695155e+00 -0.000000000e+00
    endloop
  endfacet
  facet normal 0.000000000e+00 0.000000000e+00 -1.000000000e+00
    outer loop
      vertex 6.607695155e+00 1.439230485e+01 -0.000000000e+00
      vertex 1.300000000e+01 8.000000000e+00 -0.000000000e+00
      vertex 9.392304845e+00 1.607695155e+00 -0.000000000e+00
    endloop
  endfacet
  facet normal -3.147754435e-16 9.659258263e-01 -2.588190451e-01
    outer loop
      vertex 6.607695155e+00 1.439230485e+01 -0.000000000e+00
      vertex 5.000000000e+00 1.600000000e+01 6.000000000e+00
      vertex 8.000000000e+00 1.663397460e+01 8.366025404e+00
    endloop
  endfacet
  facet normal -3.021644346e-16 -9.659258263e-01 2.588190451e-01
    outer loop
      vertex 6.607695155e+00 1.439230485e+01 -0.000000000e+00
      vertex 1.100000000e+01 1.600000000e+01 6.000000000e+00
      vertex 8.000000000e+00 1.663397460e+01 8.366025404e+00
    endloop
  endfacet
  facet normal 0.000000000e+00 9.659258263e-01 -2.588190451e-01
    outer loop
      vertex 6.607695155e+00 1.439230485e+01 -0.000000000e+00
      vertex 1.100000000e+01 1.600000000e+01 6.000000000e+00
      vertex 9.392304845e+00 1.439230485e+01 -0.000000000e+00
    endloop
  endfacet
  facet normal 9.659258263e-01 0.000000000e+00 -2.588190451e-01
    outer loop
      vertex 1.607695155e+00 6.607695155e+00 1.200000000e+01
      vertex 4.440892099e-16 1.100000000e+01 6.000000000e+00
      vertex 1.607695155e+00 9.392304845e+00 1.200000000e+01
    endloop
  endfacet
  facet normal -9.659258263e-01 0.000000000e+00 2.588190451e-01
    outer loop
      vertex 1.607695155e+00 6.607695155e+00 1.200000000e+01
      vertex 4.440892099e-16 1.100000000e+01 6.000000000e+00
      vertex -6.339745962e-01 8.000000000e+00 3.633974596e+00
    endloop
  endfacet
  facet normal 9.659258263e-01 0.000000000e+00 -2.588190451e-01
    outer loop
      vertex 1.607695155e+00 6.607695155e+00 1.200000000e+01
      vertex 0.000000000e+00 5.000000000e+00 6.000000000e+00
      vertex -6.339745962e-01 8.000000000e+00 3.633974596e+00
    endloop
  endfacet
  facet normal 0.000000000e+00 0.000000000e+00 1.000000000e+00
    outer loop
      vertex 1.439230485e+01 9.392304845e+00 1.200000000e+01
      vertex 8.000000000e+00 1.300000000e+01 1.200000000e+01
      vertex 1.607695155e+00 9.392304845e+00 1.200000000e+01
    endloop
  endfacet
  facet normal -0.000000000e+00 0.000000000e+00 -1.000000000e+00
    outer loop
      vertex 1.439230485e+01 9.392304845e+00 1.200000000e+01
      vertex 1.607695155e+00 6.607695155e+00 1.200000000e+01
      vertex 1.607695155e+00 9.392304845e+00 1.200000000e+01
    endloop
  endfacet
  facet normal 0.000000000e+00 0.000000000e+00 1.000000000e+00
    outer loop
      vertex 1.439230485e+01 9.392304845e+00 1.200000000e+01
      vertex 8.000000000e+00 3.000000000e+00 1.200000000e+01
      vertex 1.439230485e+01 6.607695155e+00 1.200000000e+01
    endloop
  endfacet
  facet normal 0.000000000e+00 0.000000000e+00 1.000000000e+00
    outer loop
      vertex 1.439230485e+01 9.392304845e+00 1.200000000e+01
      vertex 1.607695155e+00 6.607695155e+00 1.200000000e+01
      vertex 8.000000000e+00 3.000000000e+00 1.200000000e+01
    endloop
  endfacet
  facet normal -9.659258263e-01 -1.573877218e-16 -2.588190451e-01
    outer loop
      vertex 1.439230485e+01 9.392304845e+00 1.200000000e+01
      vertex 1.600000000e+01 1.100000000e+01 6.000000000e+00
      vertex 1.663397460e+01 8.000000000e+00 3.633974596e+00
    endloop
  endfacet
  facet normal 9.659258263e-01 -6.043288691e-17 2.588190451e-01
    outer loop
      vertex 1.439230485e+01 9.392304845e+00 1.200000000e+01
      vertex 1.600000000e+01 5.000000000e+00 6.000000000e+00
      vertex 1.663397460e+01 8.000000000e+00 3.633974596e+00
    endloop
  endfacet
  facet normal -9.659258263e-01 -0.000000000e+00 -2.588190451e-01
    outer loop
      vertex 1.439230485e+01 9.392304845e+00 1.200000000e+01
      vertex 1.600000000e+01 5.000000000e+00 6.000000000e+00
      vertex 1.439230485e+01 6.607695155e+00 1.200000000e+01
    endloop
  endfacet
  facet normal -5.256323507e-01 7.037956372e-01 -4.778936419e-01
    outer loop
      vertex 6.392304845e+00 -1.392304845e+00 1.800000000e+01
      vertex 3.000000000e+00 -8.000000000e+00 1.200000000e+01
      vertex 0.000000000e+00 -8.633974596e+00 1.436602540e+01
    endloop
  endfacet
  facet normal 6.612248329e-01 6.612248329e-01 3.543493200e-01
    outer loop
      vertex -8.000000000e+00 -3.000000000e+00 1.200000000e+01
      vertex -3.000000000e+00 -8.000000000e+00 1.200000000e+01
      vertex -1.392304845e+00 -6.392304845e+00 6.000000000e+00
    endloop
  endfacet
  facet normal 7.037956372e-01 5.256323507e-01 4.778936419e-01
    outer loop
      vertex -8.000000000e+00 -3.000000000e+00 1.200000000e+01
      vertex -1.392304845e+00 -6.392304845e+00 6.000000000e+00
      vertex -8.633974596e+00 0.000000000e+00 9.633974596e+00
    endloop
  endfacet
  facet normal -6.567408444e-01 -3.706520292e-01 -6.567408444e-01
    outer loop
      vertex -5.000000000e+00 -0.000000000e+00 6.000000000e+00
      vertex -1.392304845e+00 -6.392304845e+00 6.000000000e+00
      vertex -8.633974596e+00 0.000000000e+00 9.633974596e+00
    endloop
  endfacet
  facet normal -6.612248329e-01 6.612248329e-01 3.543493200e-01
    outer loop
      vertex -3.000000000e+00 8.000000000e+00 1.200000000e+01
      vertex -8.000000000e+00 3.000000000e+00 1.200000000e+01
      vertex -6.392304845e+00 1.392304845e+00 1.800000000e+01
    endloop
  endfacet
  facet normal -5.256323507e-01 7.037956372e-01 4.778936419e-01
    outer loop
      vertex -3.000000000e+00 8.000000000e+00 1.200000000e+01
      vertex -6.392304845e+00 1.392304845e+00 1.800000000e+01
      vertex 0.000000000e+00 8.633974596e+00 1.436602540e+01
    endloop
  endfacet
  facet normal -3.706520292e-01 6.567408444e-01 -6.567408444e-01
    outer loop
      vertex 0.000000000e+00 -5.000000000e+00 1.800000000e+01
      vertex 6.392304845e+00 -1.392304845e+00 1.800000000e+01
      vertex 0.000000000e+00 -8.633974596e+00 1.436602540e+01
    endloop
  endfacet
  facet normal 6.612248329e-01 -6.612248329e-01 3.543493200e-01
    outer loop
      vertex 8.000000000e+00 -3.000000000e+00 1.200000000e+01
      vertex 6.392304845e+00 -1.392304845e+00 1.800000000e+01
      vertex 3.000000000e+00 -8.000000000e+00 1.200000000e+01
    endloop
  endfacet
  facet normal -6.612248329e-01 6.612248329e-01 3.543493200e-01
    outer loop
      vertex 8.000000000e+00 -3.000000000e+00 1.200000000e+01
      vertex 1.392304845e+00 -6.392304845e+00 6.000000000e+00
      vertex 3.000000000e+00 -8.000000000e+00 1.200000000e+01
    endloop
  endfacet
  facet normal 7.037956372e-01 -5.256323507e-01 -4.778936419e-01
    outer loop
      vertex 8.000000000e+00 -3.000000000e+00 1.200000000e+01
      vertex 1.392304845e+00 -6.392304845e+00 6.000000000e+00
      vertex 8.633974596e+00 0.000000000e+00 9.633974596e+00
    endloop
  endfacet
  facet normal 3.706520292e-01 -6.567408444e-01 -6.567408444e-01
    outer loop
      vertex 0.000000000e+00 5.000000000e+00 1.800000000e+01
      vertex -6.392304845e+00 1.392304845e+00 1.800000000e+01
      vertex 0.000000000e+00 8.633974596e+00 1.436602540e+01
    endloop
  endfacet
  facet normal 6.567408444e-01 3.706520292e-01 -6.567408444e-01
    outer loop
      vertex 5.000000000e+00 -0.000000000e+00 6.000000000e+00
      vertex 1.392304845e+00 6.392304845e+00 6.000000000e+00
      vertex 8.633974596e+00 0.000000000e+00 9.633974596e+00
    endloop
  endfacet
  facet normal -6.567408444e-01 3.706520292e-01 6.567408444e-01
    outer loop
      vertex 5.000000000e+00 -0.000000000e+00 6.000000000e+00
      vertex 1.392304845e+00 -6.392304845e+00 6.000000000e+00
      vertex 8.633974596e+00 0.000000000e+00 9.633974596e+00
    endloop
  endfacet
  facet normal -6.612248329e-01 -6.612248329e-01 3.543493200e-01
    outer loop
      vertex 8.000000000e+00 3.000000000e+00 1.200000000e+01
      vertex 3.000000000e+00 8.000000000e+00 1.200000000e+01
      vertex 1.392304845e+00 6.392304845e+00 6.000000000e+00
    endloop
  endfacet
  facet normal -7.037956372e-01 -5.256323507e-01 4.778936419e-01
    outer loop
      vertex 8.000000000e+00 3.000000000e+00 1.200000000e+01
      vertex 1.392304845e+00 6.392304845e+00 6.000000000e+00
      vertex 8.633974596e+00 0.000000000e+00 9.633974596e+00
    endloop
  endfacet
  facet normal 7.037956372e-01 -5.256323507e-01 4.778936419e-01
    outer loop
      vertex -1.392304845e+00 6.392304845e+00 6.000000000e+00
      vertex -8.000000000e+00 3.000000000e+00 1.200000000e+01
      vertex -8.633974596e+00 0.000000000e+00 9.633974596e+00
    endloop
  endfacet
  facet normal -6.567408444e-01 3.706520292e-01 -6.567408444e-01
    outer loop
      vertex -1.392304845e+00 6.392304845e+00 6.000000000e+00
      vertex -5.000000000e+00 -0.000000000e+00 6.000000000e+00
      vertex -8.633974596e+00 0.000000000e+00 9.633974596e+00
    endloop
  endfacet
  facet normal 6.612248329e-01 -6.612248329e-01 3.543493200e-01
    outer loop
      vertex -1.392304845e+00 6.392304845e+00 6.000000000e+00
      vertex -3.000000000e+00 8.000000000e+00 1.200000000e+01
      vertex -8.000000000e+00 3.000000000e+00 1.200000000e+01
    endloop
  endfacet
  facet normal -5.256323507e-01 -7.037956372e-01 4.778936419e-01
    outer loop
      vertex -6.392304845e+00 -1.392304845e+00 1.800000000e+01
      vertex -3.000000000e+00 -8.000000000e+00 1.200000000e+01
      vertex 0.000000000e+00 -8.633974596e+00 1.436602540e+01
    endloop
  endfacet
  facet normal -6.612248329e-01 -6.612248329e-01 3.543493200e-01
    outer loop
      vertex -6.392304845e+00 -1.392304845e+00 1.800000000e+01
      vertex -8.000000000e+00 -3.000000000e+00 1.200000000e+01
      vertex -3.000000000e+00 -8.000000000e+00 1.200000000e+01
    endloop
  endfacet
  facet normal 3.706520292e-01 6.567408444e-01 -6.567408444e-01
    outer loop
      vertex -6.392304845e+00 -1.392304845e+00 1.800000000e+01
      vertex 0.000000000e+00 -5.000000000e+00 1.800000000e+01
      vertex 0.000000000e+00 -8.633974596e+00 1.436602540e+01
    endloop
  endfacet
  facet normal 5.256323507e-01 7.037956372e-01 4.778936419e-01
    outer loop
      vertex 6.392304845e+00 1.392304845e+00 1.800000000e+01
      vertex 3.000000000e+00 8.000000000e+00 1.200000000e+01
      vertex 0.000000000e+00 8.633974596e+00 1.436602540e+01
    endloop
  endfacet
  facet normal -3.706520292e-01 -6.567408444e-01 -6.567408444e-01
    outer loop
      vertex 6.392304845e+00 1.392304845e+00 1.800000000e+01
      vertex 0.000000000e+00 5.000000000e+00 1.800000000e+01
      vertex 0.000000000e+00 8.633974596e+00 1.436602540e+01
    endloop
  endfacet
  facet normal 6.612248329e-01 6.612248329e-01 3.543493200e-01
    outer loop
      vertex 6.392304845e+00 1.392304845e+00 1.800000000e+01
      vertex 8.000000000e+00 3.000000000e+00 1.200000000e+01
      vertex 3.000000000e+00 8.000000000e+00 1.200000000e+01
    endloop
  endfacet
  facet normal -0.000000000e+00 -9.659258263e-01 -2.588190451e-01
    outer loop
      vertex 1.392304845e+00 -6.392304845e+00 6.000000000e+00
      vertex -3.000000000e+00 -8.000000000e+00 1.200000000e+01
      vertex -1.392304845e+00 -6.392304845e+00 6.000000000e+00
    endloop
  endfacet
  facet normal 6.647617560e-16 9.659258263e-01 2.588190451e-01
    outer loop
      vertex 1.392304845e+00 -6.392304845e+00 6.000000000e+00
      vertex -3.000000000e+00 -8.000000000e+00 1.200000000e+01
      vertex 0.000000000e+00 -8.633974596e+00 1.436602540e+01
    endloop
  endfacet
  facet normal 8.656324697e-16 -9.659258263e-01 -2.588190451e-01
    outer loop
      vertex 1.392304845e+00 -6.392304845e+00 6.000000000e+00
      vertex 3.000000000e+00 -8.000000000e+00 1.200000000e+01
      vertex 0.000000000e+00 -8.633974596e+00 1.436602540e+01
    endloop
  endfacet
  facet normal 0.000000000e+00 0.000000000e+00 -1.000000000e+00
    outer loop
      vertex -1.392304845e+00 6.392304845e+00 6.000000000e+00
      vertex 1.392304845e+00 -6.392304845e+00 6.000000000e+00
      vertex -1.392304845e+00 -6.392304845e+00 6.000000000e+00
    endloop
  endfacet
  facet normal -0.000000000e+00 0.000000000e+00 1.000000000e+00
    outer loop
      vertex -1.392304845e+00 6.392304845e+00 6.000000000e+00
      vertex 5.000000000e+00 -0.000000000e+00 6.000000000e+00
      vertex 1.392304845e+00 6.392304845e+00 6.000000000e+00
    endloop
  endfacet
  facet normal 0.000000000e+00 0.000000000e+00 1.000000000e+00
    outer loop
      vertex -1.392304845e+00 6.392304845e+00 6.000000000e+00
      vertex -5.000000000e+00 -0.000000000e+00 6.000000000e+00
      vertex -1.392304845e+00 -6.392304845e+00 6.000000000e+00
    endloop
  endfacet
  facet normal 0.000000000e+00 0.000000000e+00 -1.000000000e+00
    outer loop
      vertex -1.392304845e+00 6.392304845e+00 6.000000000e+00
      vertex 5.000000000e+00 -0.000000000e+00 6.000000000e+00
      vertex 1.392304845e+00 -6.392304845e+00 6.000000000e+00
    endloop
  endfacet
  facet normal -8.656324697e-16 9.659258263e-01 -2.588190451e-01
    outer loop
      vertex -1.392304845e+00 6.392304845e+00 6.000000000e+00
      vertex -3.000000000e+00 8.000000000e+00 1.200000000e+01
      vertex 0.000000000e+00 8.633974596e+00 1.436602540e+01
    endloop
  endfacet
  facet normal -6.647617560e-16 -9.659258263e-01 2.588190451e-01
    outer loop
      vertex -1.392304845e+00 6.392304845e+00 6.000000000e+00
      vertex 3.000000000e+00 8.000000000e+00 1.200000000e+01
      vertex 0.000000000e+00 8.633974596e+00 1.436602540e+01
    endloop
  endfacet
  facet normal 0.000000000e+00 9.659258263e-01 -2.588190451e-01
    outer loop
      vertex -1.392304845e+00 6.392304845e+00 6.000000000e+00
      vertex 3.000000000e+00 8.000000000e+00 1.200000000e+01
      vertex 1.392304845e+00 6.392304845e+00 6.000000000e+00
    endloop
  endfacet
  facet normal 9.659258263e-01 0.000000000e+00 -2.588190451e-01
    outer loop
      vertex -6.392304845e+00 -1.392304845e+00 1.800000000e+01
      vertex -8.000000000e+00 3.000000000e+00 1.200000000e+01
      vertex -6.392304845e+00 1.392304845e+00 1.800000000e+01
    endloop
  endfacet
  facet normal -9.659258263e-01 -1.812986607e-16 2.588190451e-01
    outer loop
      vertex -6.392304845e+00 -1.392304845e+00 1.800000000e+01
      vertex -8.000000000e+00 3.000000000e+00 1.200000000e+01
      vertex -8.633974596e+00 0.000000000e+00 9.633974596e+00
    endloop
  endfacet
  facet normal 9.659258263e-01 -2.360815826e-16 -2.588190451e-01
    outer loop
      vertex -6.392304845e+00 -1.392304845e+00 1.800000000e+01
      vertex -8.000000000e+00 -3.000000000e+00 1.200000000e+01
      vertex -8.633974596e+00 0.000000000e+00 9.633974596e+00
    endloop
  endfacet
  facet normal 0.000000000e+00 0.000000000e+00 1.000000000e+00
    outer loop
      vertex 6.392304845e+00 1.392304845e+00 1.800000000e+01
      vertex 0.000000000e+00 5.000000000e+00 1.800000000e+01
      vertex -6.392304845e+00 1.392304845e+00 1.800000000e+01
    endloop
  endfacet
  facet normal -0.000000000e+00 0.000000000e+00 -1.000000000e+00
    outer loop
      vertex 6.392304845e+00 1.392304845e+00 1.800000000e+01
      vertex -6.392304845e+00 -1.392304845e+00 1.800000000e+01
      vertex -6.392304845e+00 1.392304845e+00 1.800000000e+01
    endloop
  endfacet
  facet normal 0.000000000e+00 0.000000000e+00 1.000000000e+00
    outer loop
      vertex 6.392304845e+00 1.392304845e+00 1.800000000e+01
      vertex 0.000000000e+00 -5.000000000e+00 1.800000000e+01
      vertex 6.392304845e+00 -1.392304845e+00 1.800000000e+01
    endloop
  endfacet
  facet normal 0.000000000e+00 0.000000000e+00 1.000000000e+00
    outer loop
      vertex 6.392304845e+00 1.392304845e+00 1.800000000e+01
      vertex -6.392304845e+00 -1.392304845e+00 1.800000000e+01
      vertex 0.000000000e+00 -5.000000000e+00 1.800000000e+01
    endloop
  endfacet
  facet normal -9.659258263e-01 9.443263306e-16 -2.588190451e-01
    outer loop
      vertex 6.392304845e+00 1.392304845e+00 1.800000000e+01
      vertex 8.000000000e+00 3.000000000e+00 1.200000000e+01
      vertex 8.633974596e+00 0.000000000e+00 9.633974596e+00
    endloop
  endfacet
  facet normal 9.659258263e-01 1.812986607e-16 2.588190451e-01
    outer loop
      vertex 6.392304845e+00 1.392304845e+00 1.800000000e+01
      vertex 8.000000000e+00 -3.000000000e+00 1.200000000e+01
      vertex 8.633974596e+00 0.000000000e+00 9.633974596e+00
    endloop
  endfacet
  facet normal -9.659258263e-01 -0.000000000e+00 -2.588190451e-01
    outer loop
      vertex 6.392304845e+00 1.392304845e+00 1.800000000e+01
      vertex 8.000000000e+00 -3.000000000e+00 1.200000000e+01
      vertex 6.392304845e+00 -1.392304845e+00 1.800000000e+01
    endloop
  endfacet
endsolid set_bt_octs_4blocks
