solid set_bt_octs_5blocks
  facet normal 0.000000000e+00 8.191520443e-01 5.735764364e-01
    outer loop
      vertex 3.000000000e+00 -8.000000000e+00 -0.000000000e+00
      vertex -3.000000000e+00 -8.000000000e+00 -0.000000000e+00
      vertex 0.000000000e+00 -9.235509529e+00 1.764490471e+00
    endloop
  endfacet
  facet normal 0.000000000e+00 -8.191520443e-01 -5.735764364e-01
    outer loop
      vertex 3.000000000e+00 -8.000000000e+00 -0.000000000e+00
      vertex -1.201245229e+00 -3.798754771e+00 -6.000000000e+00
      vertex 1.201245229e+00 -3.798754771e+00 -6.000000000e+00
    endloop
  endfacet
  facet normal 0.000000000e+00 8.191520443e-01 5.735764364e-01
    outer loop
      vertex 3.000000000e+00 -8.000000000e+00 -0.000000000e+00
      vertex -1.201245229e+00 -3.798754771e+00 -6.000000000e+00
      vertex -3.000000000e+00 -8.000000000e+00 -0.000000000e+00
    endloop
  endfacet
  facet normal -5.773502692e-01 -5.773502692e-01 5.773502692e-01
    outer loop
      vertex -8.000000000e+00 -3.000000000e+00 -0.000000000e+00
      vertex -3.000000000e+00 -8.000000000e+00 -0.000000000e+00
      vertex 0.000000000e+00 -9.235509529e+00 1.764490471e+00
    endloop
  endfacet
  facet normal 5.773502692e-01 5.773502692e-01 -5.773502692e-01
    outer loop
      vertex -8.000000000e+00 -3.000000000e+00 -0.000000000e+00
      vertex 0.000000000e+00 -5.000000000e+00 6.000000000e+00
      vertex 0.000000000e+00 -9.235509529e+00 1.764490471e+00
    endloop
  endfacet
  facet normal -5.773502692e-01 -5.773502692e-01 5.773502692e-01
    outer loop
      vertex -8.000000000e+00 -3.000000000e+00 -0.000000000e+00
      vertex 0.000000000e+00 -5.000000000e+00 6.000000000e+00
      vertex -3.798754771e+00 -1.201245229e+00 6.000000000e+00
    endloop
  endfacet
  facet normal -5.773502692e-01 5.773502692e-01 5.773502692e-01
    outer loop
      vertex 5.000000000e+00 -0.000000000e+00 -6.000000000e+00
      vertex 8.000000000e+00 -3.000000000e+00 -0.000000000e+00
      vertex 9.235509529e+00 -3.845925373e-16 -1.764490471e+00
    endloop
  endfacet
  facet normal -5.773502692e-01 5.773502692e-01 5.773502692e-01
    outer loop
      vertex 5.000000000e+00 -0.000000000e+00 -6.000000000e+00
      vertex 3.000000000e+00 -8.000000000e+00 -0.000000000e+00
      vertex 8.000000000e+00 -3.000000000e+00 -0.000000000e+00
    endloop
  endfacet
  facet normal 5.773502692e-01 -5.773502692e-01 -5.773502692e-01
    outer loop
      vertex 5.000000000e+00 -0.000000000e+00 -6.000000000e+00
      vertex 3.000000000e+00 -8.000000000e+00 -0.000000000e+00
      vertex 1.201245229e+00 -3.798754771e+00 -6.000000000e+00
    endloop
  endfacet
  facet normal -5.773502692e-01 -5.773502692e-01 -5.773502692e-01
    outer loop
      vertex 3.000000000e+00 8.000000000e+00 -0.000000000e+00
      vertex 8.000000000e+00 3.000000000e+00 -0.000000000e+00
      vertex 3.798754771e+00 1.201245229e+00 6.000000000e+00
    endloop
  endfacet
  facet normal 5.773502692e-01 5.773502692e-01 5.773502692e-01
    outer loop
      vertex 3.000000000e+00 8.000000000e+00 -0.000000000e+00
      vertex 0.000000000e+00 5.000000000e+00 6.000000000e+00
      vertex 3.798754771e+00 1.201245229e+00 6.000000000e+00
    endloop
  endfacet
  facet normal -5.773502692e-01 -5.773502692e-01 -5.773502692e-01
    outer loop
      vertex 3.000000000e+00 8.000000000e+00 -0.000000000e+00
      vertex 0.000000000e+00 5.000000000e+00 6.000000000e+00
      vertex 0.000000000e+00 9.235509529e+00 1.764490471e+00
    endloop
  endfacet
  facet normal 5.773502692e-01 5.773502692e-01 -5.773502692e-01
    outer loop
      vertex 3.000000000e+00 8.000000000e+00 -0.000000000e+00
      vertex 8.000000000e+00 3.000000000e+00 -0.000000000e+00
      vertex 9.235509529e+00 -3.845925373e-16 -1.764490471e+00
    endloop
  endfacet
  facet normal -5.773502692e-01 -5.773502692e-01 5.773502692e-01
    outer loop
      vertex 3.000000000e+00 8.000000000e+00 -0.000000000e+00
      vertex 5.000000000e+00 -0.000000000e+00 -6.000000000e+00
      vertex 9.235509529e+00 -3.845925373e-16 -1.764490471e+00
    endloop
  endfacet
  facet normal 5.773502692e-01 5.773502692e-01 -5.773502692e-01
    outer loop
      vertex 3.000000000e+00 8.000000000e+00 -0.000000000e+00
      vertex 5.000000000e+00 -0.000000000e+00 -6.000000000e+00
      vertex 1.201245229e+00 3.798754771e+00 -6.000000000e+00
    endloop
  endfacet
  facet normal -5.773502692e-01 -5.773502692e-01 -5.773502692e-01
    outer loop
      vertex -5.000000000e+00 -0.000000000e+00 -6.000000000e+00
      vertex -1.201245229e+00 -3.798754771e+00 -6.000000000e+00
      vertex -3.000000000e+00 -8.000000000e+00 -0.000000000e+00
    endloop
  endfacet
  facet normal -5.773502692e-01 -5.773502692e-01 -5.773502692e-01
    outer loop
      vertex -5.000000000e+00 -0.000000000e+00 -6.000000000e+00
      vertex -8.000000000e+00 -3.000000000e+00 -0.000000000e+00
      vertex -9.235509529e+00 -3.845925373e-16 -1.764490471e+00
    endloop
  endfacet
  facet normal 5.773502692e-01 5.773502692e-01 5.773502692e-01
    outer loop
      vertex -5.000000000e+00 -0.000000000e+00 -6.000000000e+00
      vertex -8.000000000e+00 -3.000000000e+00 -0.000000000e+00
      vertex -3.000000000e+00 -8.000000000e+00 -0.000000000e+00
    endloop
  endfacet
  facet normal -8.191520443e-01 0.000000000e+00 -5.735764364e-01
    outer loop
      vertex 3.798754771e+00 -1.201245229e+00 6.000000000e+00
      vertex 8.000000000e+00 3.000000000e+00 -0.000000000e+00
      vertex 9.235509529e+00 -3.845925373e-16 -1.764490471e+00
    endloop
  endfacet
  facet normal 8.191520443e-01 0.000000000e+00 5.735764364e-01
    outer loop
      vertex 3.798754771e+00 -1.201245229e+00 6.000000000e+00
      vertex 8.000000000e+00 -3.000000000e+00 -0.000000000e+00
      vertex 9.235509529e+00 -3.845925373e-16 -1.764490471e+00
    endloop
  endfacet
  facet normal 8.191520443e-01 -0.000000000e+00 5.735764364e-01
    outer loop
      vertex 3.798754771e+00 -1.201245229e+00 6.000000000e+00
      vertex 8.000000000e+00 3.000000000e+00 -0.000000000e+00
      vertex 3.798754771e+00 1.201245229e+00 6.000000000e+00
    endloop
  endfacet
  facet normal 5.773502692e-01 -5.773502692e-01 5.773502692e-01
    outer loop
      vertex 3.798754771e+00 -1.201245229e+00 6.000000000e+00
      vertex 0.000000000e+00 -5.000000000e+00 6.000000000e+00
      vertex 0.000000000e+00 -9.235509529e+00 1.764490471e+00
    endloop
  endfacet
  facet normal -5.773502692e-01 5.773502692e-01 -5.773502692e-01
    outer loop
      vertex 3.798754771e+00 -1.201245229e+00 6.000000000e+00
      vertex 3.000000000e+00 -8.000000000e+00 -0.000000000e+00
      vertex 0.000000000e+00 -9.235509529e+00 1.764490471e+00
    endloop
  endfacet
  facet normal 5.773502692e-01 -5.773502692e-01 5.773502692e-01
    outer loop
      vertex 3.798754771e+00 -1.201245229e+00 6.000000000e+00
      vertex 3.000000000e+00 -8.000000000e+00 -0.000000000e+00
      vertex 8.000000000e+00 -3.000000000e+00 -0.000000000e+00
    endloop
  endfacet
  facet normal 0.000000000e+00 0.000000000e+00 -1.000000000e+00
    outer loop
      vertex -3.798754771e+00 1.201245229e+00 6.000000000e+00
      vertex 0.000000000e+00 -5.000000000e+00 6.000000000e+00
      vertex -3.798754771e+00 -1.201245229e+00 6.000000000e+00
    endloop
  endfacet
  facet normal 0.000000000e+00 0.000000000e+00 -1.000000000e+00
    outer loop
      vertex -3.798754771e+00 1.201245229e+00 6.000000000e+00
      vertex 0.000000000e+00 5.000000000e+00 6.000000000e+00
      vertex 3.798754771e+00 1.201245229e+00 6.000000000e+00
    endloop
  endfacet
  facet normal -0.000000000e+00 0.000000000e+00 1.000000000e+00
    outer loop
      vertex -3.798754771e+00 1.201245229e+00 6.000000000e+00
      vertex 3.798754771e+00 -1.201245229e+00 6.000000000e+00
      vertex 3.798754771e+00 1.201245229e+00 6.000000000e+00
    endloop
  endfacet
  facet normal 0.000000000e+00 0.000000000e+00 -1.000000000e+00
    outer loop
      vertex -3.798754771e+00 1.201245229e+00 6.000000000e+00
      vertex 3.798754771e+00 -1.201245229e+00 6.000000000e+00
      vertex 0.000000000e+00 -5.000000000e+00 6.000000000e+00
    endloop
  endfacet
  facet normal -8.191520443e-01 0.000000000e+00 5.735764364e-01
    outer loop
      vertex -3.798754771e+00 1.201245229e+00 6.000000000e+00
      vertex -8.000000000e+00 -3.000000000e+00 -0.000000000e+00
      vertex -3.798754771e+00 -1.201245229e+00 6.000000000e+00
    endloop
  endfacet
  facet normal -8.191520443e-01 0.000000000e+00 5.735764364e-01
    outer loop
      vertex -3.798754771e+00 1.201245229e+00 6.000000000e+00
      vertex -8.000000000e+00 3.000000000e+00 -0.000000000e+00
      vertex -9.235509529e+00 -3.845925373e-16 -1.764490471e+00
    endloop
  endfacet
  facet normal 8.191520443e-01 0.000000000e+00 -5.735764364e-01
    outer loop
      vertex -3.798754771e+00 1.201245229e+00 6.000000000e+00
      vertex -8.000000000e+00 -3.000000000e+00 -0.000000000e+00
      vertex -9.235509529e+00 -3.845925373e-16 -1.764490471e+00
    endloop
  endfacet
  facet normal -5.773502692e-01 5.773502692e-01 5.773502692e-01
    outer loop
      vertex -3.798754771e+00 1.201245229e+00 6.000000000e+00
      vertex 0.000000000e+00 5.000000000e+00 6.000000000e+00
      vertex 0.000000000e+00 9.235509529e+00 1.764490471e+00
    endloop
  endfacet
  facet normal 5.773502692e-01 -5.773502692e-01 -5.773502692e-01
    outer loop
      vertex -3.798754771e+00 1.201245229e+00 6.000000000e+00
      vertex -3.000000000e+00 8.000000000e+00 -0.000000000e+00
      vertex 0.000000000e+00 9.235509529e+00 1.764490471e+00
    endloop
  endfacet
  facet normal -5.773502692e-01 5.773502692e-01 5.773502692e-01
    outer loop
      vertex -3.798754771e+00 1.201245229e+00 6.000000000e+00
      vertex -3.000000000e+00 8.000000000e+00 -0.000000000e+00
      vertex -8.000000000e+00 3.000000000e+00 -0.000000000e+00
    endloop
  endfacet
  facet normal 0.000000000e+00 0.000000000e+00 1.000000000e+00
    outer loop
      vertex -1.201245229e+00 3.798754771e+00 -6.000000000e+00
      vertex -1.201245229e+00 -3.798754771e+00 -6.000000000e+00
      vertex 1.201245229e+00 -3.798754771e+00 -6.000000000e+00
    endloop
  endfacet
  facet normal -0.000000000e+00 0.000000000e+00 1.000000000e+00
    outer loop
      vertex -1.201245229e+00 3.798754771e+00 -6.000000000e+00
      vertex 5.000000000e+00 -0.000000000e+00 -6.000000000e+00
      vertex 1.201245229e+00 3.798754771e+00 -6.000000000e+00
    endloop
  endfacet
  facet normal 0.000000000e+00 0.000000000e+00 -1.000000000e+00
    outer loop
      vertex -1.201245229e+00 3.798754771e+00 -6.000000000e+00
      vertex 5.000000000e+00 -0.000000000e+00 -6.000000000e+00
      vertex 1.201245229e+00 -3.798754771e+00 -6.000000000e+00
    endloop
  endfacet
  facet normal 0.000000000e+00 0.000000000e+00 1.000000000e+00
    outer loop
      vertex -1.201245229e+00 3.798754771e+00 -6.000000000e+00
      vertex -5.000000000e+00 -0.000000000e+00 -6.000000000e+00
      vertex -1.201245229e+00 -3.798754771e+00 -6.000000000e+00
    endloop
  endfacet
  facet normal 0.000000000e+00 -8.191520443e-01 5.735764364e-01
    outer loop
      vertex -1.201245229e+00 3.798754771e+00 -6.000000000e+00
      vertex 3.000000000e+00 8.000000000e+00 -0.000000000e+00
      vertex 0.000000000e+00 9.235509529e+00 1.764490471e+00
    endloop
  endfacet
  facet normal 0.000000000e+00 8.191520443e-01 -5.735764364e-01
    outer loop
      vertex -1.201245229e+00 3.798754771e+00 -6.000000000e+00
      vertex 3.000000000e+00 8.000000000e+00 -0.000000000e+00
      vertex 1.201245229e+00 3.798754771e+00 -6.000000000e+00
    endloop
  endfacet
  facet normal 0.000000000e+00 8.191520443e-01 -5.735764364e-01
    outer loop
      vertex -1.201245229e+00 3.798754771e+00 -6.000000000e+00
      vertex -3.000000000e+00 8.000000000e+00 -0.000000000e+00
      vertex 0.000000000e+00 9.235509529e+00 1.764490471e+00
    endloop
  endfacet
  facet normal 5.773502692e-01 -5.773502692e-01 5.773502692e-01
    outer loop
      vertex -1.201245229e+00 3.798754771e+00 -6.000000000e+00
      vertex -8.000000000e+00 3.000000000e+00 -0.000000000e+00
      vertex -9.235509529e+00 -3.845925373e-16 -1.764490471e+00
    endloop
  endfacet
  facet normal -5.773502692e-01 5.773502692e-01 -5.773502692e-01
    outer loop
      vertex -1.201245229e+00 3.798754771e+00 -6.000000000e+00
      vertex -5.000000000e+00 -0.000000000e+00 -6.000000000e+00
      vertex -9.235509529e+00 -3.845925373e-16 -1.764490471e+00
    endloop
  endfacet
  facet normal 5.773502692e-01 -5.773502692e-01 5.773502692e-01
    outer loop
      vertex -1.201245229e+00 3.798754771e+00 -6.000000000e+00
      vertex -3.000000000e+00 8.000000000e+00 -0.000000000e+00
      vertex -8.000000000e+00 3.000000000e+00 -0.000000000e+00
    endloop
  endfacet
  facet normal 8.191520443e-01 -4.580657341e-16 5.735764364e-01
    outer loop
      vertex -3.798754771e+00 1.479875477e+01 -6.000000000e+00
      vertex -8.000000000e+00 1.900000000e+01 -0.000000000e+00
      vertex -9.235509529e+00 1.600000000e+01 1.764490471e+00
    endloop
  endfacet
  facet normal -8.191520443e-01 0.000000000e+00 -5.735764364e-01
    outer loop
      vertex -3.798754771e+00 1.479875477e+01 -6.000000000e+00
      vertex -8.000000000e+00 1.300000000e+01 -0.000000000e+00
      vertex -9.235509529e+00 1.600000000e+01 1.764490471e+00
    endloop
  endfacet
  facet normal -8.191520443e-01 0.000000000e+00 -5.735764364e-01
    outer loop
      vertex -3.798754771e+00 1.479875477e+01 -6.000000000e+00
      vertex -8.000000000e+00 1.900000000e+01 -0.000000000e+00
      vertex -3.798754771e+00 1.720124523e+01 -6.000000000e+00
    endloop
  endfacet
  facet normal 2.290328671e-16 -8.191520443e-01 5.735764364e-01
    outer loop
      vertex 1.201245229e+00 1.220124523e+01 6.000000000e+00
      vertex -3.000000000e+00 8.000000000e+00 -0.000000000e+00
      vertex -0.000000000e+00 6.764490471e+00 -1.764490471e+00
    endloop
  endfacet
  facet normal 2.748869736e-16 8.191520443e-01 -5.735764364e-01
    outer loop
      vertex 1.201245229e+00 1.220124523e+01 6.000000000e+00
      vertex 3.000000000e+00 8.000000000e+00 -0.000000000e+00
      vertex -0.000000000e+00 6.764490471e+00 -1.764490471e+00
    endloop
  endfacet
  facet normal -6.056658128e-16 8.191520443e-01 -5.735764364e-01
    outer loop
      vertex 1.201245229e+00 1.220124523e+01 6.000000000e+00
      vertex -3.000000000e+00 8.000000000e+00 -0.000000000e+00
      vertex -1.201245229e+00 1.220124523e+01 6.000000000e+00
    endloop
  endfacet
  facet normal 5.773502692e-01 5.773502692e-01 -5.773502692e-01
    outer loop
      vertex -5.000000000e+00 1.600000000e+01 6.000000000e+00
      vertex -8.000000000e+00 1.300000000e+01 -0.000000000e+00
      vertex -9.235509529e+00 1.600000000e+01 1.764490471e+00
    endloop
  endfacet
  facet normal 5.773502692e-01 5.773502692e-01 -5.773502692e-01
    outer loop
      vertex -5.000000000e+00 1.600000000e+01 6.000000000e+00
      vertex -3.000000000e+00 8.000000000e+00 -0.000000000e+00
      vertex -8.000000000e+00 1.300000000e+01 -0.000000000e+00
    endloop
  endfacet
  facet normal -5.773502692e-01 -5.773502692e-01 5.773502692e-01
    outer loop
      vertex -5.000000000e+00 1.600000000e+01 6.000000000e+00
      vertex -3.000000000e+00 8.000000000e+00 -0.000000000e+00
      vertex -1.201245229e+00 1.220124523e+01 6.000000000e+00
    endloop
  endfacet
  facet normal 5.773502692e-01 -5.773502692e-01 5.773502692e-01
    outer loop
      vertex -3.000000000e+00 2.400000000e+01 -0.000000000e+00
      vertex -8.000000000e+00 1.900000000e+01 -0.000000000e+00
      vertex -3.798754771e+00 1.720124523e+01 -6.000000000e+00
    endloop
  endfacet
  facet normal -5.773502692e-01 5.773502692e-01 -5.773502692e-01
    outer loop
      vertex -3.000000000e+00 2.400000000e+01 -0.000000000e+00
      vertex -0.000000000e+00 2.100000000e+01 -6.000000000e+00
      vertex -3.798754771e+00 1.720124523e+01 -6.000000000e+00
    endloop
  endfacet
  facet normal 5.773502692e-01 -5.773502692e-01 5.773502692e-01
    outer loop
      vertex -3.000000000e+00 2.400000000e+01 -0.000000000e+00
      vertex -0.000000000e+00 2.100000000e+01 -6.000000000e+00
      vertex -0.000000000e+00 2.523550953e+01 -1.764490471e+00
    endloop
  endfacet
  facet normal 5.773502692e-01 5.773502692e-01 5.773502692e-01
    outer loop
      vertex -0.000000000e+00 1.100000000e+01 -6.000000000e+00
      vertex -3.798754771e+00 1.479875477e+01 -6.000000000e+00
      vertex -8.000000000e+00 1.300000000e+01 -0.000000000e+00
    endloop
  endfacet
  facet normal 5.773502692e-01 5.773502692e-01 5.773502692e-01
    outer loop
      vertex -0.000000000e+00 1.100000000e+01 -6.000000000e+00
      vertex -3.000000000e+00 8.000000000e+00 -0.000000000e+00
      vertex -0.000000000e+00 6.764490471e+00 -1.764490471e+00
    endloop
  endfacet
  facet normal -5.773502692e-01 -5.773502692e-01 -5.773502692e-01
    outer loop
      vertex -0.000000000e+00 1.100000000e+01 -6.000000000e+00
      vertex -3.000000000e+00 8.000000000e+00 -0.000000000e+00
      vertex -8.000000000e+00 1.300000000e+01 -0.000000000e+00
    endloop
  endfacet
  facet normal 5.773502692e-01 -5.773502692e-01 -5.773502692e-01
    outer loop
      vertex -0.000000000e+00 1.100000000e+01 -6.000000000e+00
      vertex 3.000000000e+00 8.000000000e+00 -0.000000000e+00
      vertex -0.000000000e+00 6.764490471e+00 -1.764490471e+00
    endloop
  endfacet
  facet normal 5.773502692e-01 -5.773502692e-01 -5.773502692e-01
    outer loop
      vertex -0.000000000e+00 1.100000000e+01 -6.000000000e+00
      vertex 8.000000000e+00 1.300000000e+01 -0.000000000e+00
      vertex 3.000000000e+00 8.000000000e+00 -0.000000000e+00
    endloop
  endfacet
  facet normal -5.773502692e-01 5.773502692e-01 5.773502692e-01
    outer loop
      vertex -0.000000000e+00 1.100000000e+01 -6.000000000e+00
      vertex 8.000000000e+00 1.300000000e+01 -0.000000000e+00
      vertex 3.798754771e+00 1.479875477e+01 -6.000000000e+00
    endloop
  endfacet
  facet normal 0.000000000e+00 0.000000000e+00 -1.000000000e+00
    outer loop
      vertex 3.798754771e+00 1.720124523e+01 -6.000000000e+00
      vertex -3.798754771e+00 1.479875477e+01 -6.000000000e+00
      vertex -3.798754771e+00 1.720124523e+01 -6.000000000e+00
    endloop
  endfacet
  facet normal 0.000000000e+00 0.000000000e+00 1.000000000e+00
    outer loop
      vertex 3.798754771e+00 1.720124523e+01 -6.000000000e+00
      vertex -0.000000000e+00 2.100000000e+01 -6.000000000e+00
      vertex -3.798754771e+00 1.720124523e+01 -6.000000000e+00
    endloop
  endfacet
  facet normal 0.000000000e+00 0.000000000e+00 -1.000000000e+00
    outer loop
      vertex 3.798754771e+00 1.720124523e+01 -6.000000000e+00
      vertex -0.000000000e+00 1.100000000e+01 -6.000000000e+00
      vertex -3.798754771e+00 1.479875477e+01 -6.000000000e+00
    endloop
  endfacet
  facet normal 0.000000000e+00 0.000000000e+00 1.000000000e+00
    outer loop
      vertex 3.798754771e+00 1.720124523e+01 -6.000000000e+00
      vertex -0.000000000e+00 1.100000000e+01 -6.000000000e+00
      vertex 3.798754771e+00 1.479875477e+01 -6.000000000e+00
    endloop
  endfacet
  facet normal -8.191520443e-01 2.290328671e-16 5.735764364e-01
    outer loop
      vertex 3.798754771e+00 1.720124523e+01 -6.000000000e+00
      vertex 8.000000000e+00 1.300000000e+01 -0.000000000e+00
      vertex 9.235509529e+00 1.600000000e+01 1.764490471e+00
    endloop
  endfacet
  facet normal 8.191520443e-01 2.748869736e-16 -5.735764364e-01
    outer loop
      vertex 3.798754771e+00 1.720124523e+01 -6.000000000e+00
      vertex 8.000000000e+00 1.900000000e+01 -0.000000000e+00
      vertex 9.235509529e+00 1.600000000e+01 1.764490471e+00
    endloop
  endfacet
  facet normal 8.191520443e-01 0.000000000e+00 -5.735764364e-01
    outer loop
      vertex 3.798754771e+00 1.720124523e+01 -6.000000000e+00
      vertex 8.000000000e+00 1.300000000e+01 -0.000000000e+00
      vertex 3.798754771e+00 1.479875477e+01 -6.000000000e+00
    endloop
  endfacet
  facet normal 5.773502692e-01 5.773502692e-01 -5.773502692e-01
    outer loop
      vertex 3.798754771e+00 1.720124523e+01 -6.000000000e+00
      vertex -0.000000000e+00 2.100000000e+01 -6.000000000e+00
      vertex -0.000000000e+00 2.523550953e+01 -1.764490471e+00
    endloop
  endfacet
  facet normal -5.773502692e-01 -5.773502692e-01 5.773502692e-01
    outer loop
      vertex 3.798754771e+00 1.720124523e+01 -6.000000000e+00
      vertex 3.000000000e+00 2.400000000e+01 -0.000000000e+00
      vertex -0.000000000e+00 2.523550953e+01 -1.764490471e+00
    endloop
  endfacet
  facet normal 5.773502692e-01 5.773502692e-01 -5.773502692e-01
    outer loop
      vertex 3.798754771e+00 1.720124523e+01 -6.000000000e+00
      vertex 3.000000000e+00 2.400000000e+01 -0.000000000e+00
      vertex 8.000000000e+00 1.900000000e+01 -0.000000000e+00
    endloop
  endfacet
  facet normal 5.773502692e-01 -5.773502692e-01 5.773502692e-01
    outer loop
      vertex 5.000000000e+00 1.600000000e+01 6.000000000e+00
      vertex 1.201245229e+00 1.220124523e+01 6.000000000e+00
      vertex 3.000000000e+00 8.000000000e+00 -0.000000000e+00
    endloop
  endfacet
  facet normal 5.773502692e-01 -5.773502692e-01 5.773502692e-01
    outer loop
      vertex 5.000000000e+00 1.600000000e+01 6.000000000e+00
      vertex 8.000000000e+00 1.300000000e+01 -0.000000000e+00
      vertex 9.235509529e+00 1.600000000e+01 1.764490471e+00
    endloop
  endfacet
  facet normal -5.773502692e-01 5.773502692e-01 -5.773502692e-01
    outer loop
      vertex 5.000000000e+00 1.600000000e+01 6.000000000e+00
      vertex 8.000000000e+00 1.300000000e+01 -0.000000000e+00
      vertex 3.000000000e+00 8.000000000e+00 -0.000000000e+00
    endloop
  endfacet
  facet normal -5.773502692e-01 -5.773502692e-01 -5.773502692e-01
    outer loop
      vertex 5.000000000e+00 1.600000000e+01 6.000000000e+00
      vertex 8.000000000e+00 1.900000000e+01 -0.000000000e+00
      vertex 9.235509529e+00 1.600000000e+01 1.764490471e+00
    endloop
  endfacet
  facet normal -5.773502692e-01 -5.773502692e-01 -5.773502692e-01
    outer loop
      vertex 5.000000000e+00 1.600000000e+01 6.000000000e+00
      vertex 3.000000000e+00 2.400000000e+01 -0.000000000e+00
      vertex 8.000000000e+00 1.900000000e+01 -0.000000000e+00
    endloop
  endfacet
  facet normal 5.773502692e-01 5.773502692e-01 5.773502692e-01
    outer loop
      vertex 5.000000000e+00 1.600000000e+01 6.000000000e+00
      vertex 3.000000000e+00 2.400000000e+01 -0.000000000e+00
      vertex 1.201245229e+00 1.979875477e+01 6.000000000e+00
    endloop
  endfacet
  facet normal 0.000000000e+00 0.000000000e+00 -1.000000000e+00
    outer loop
      vertex -1.201245229e+00 1.979875477e+01 6.000000000e+00
      vertex 1.201245229e+00 1.220124523e+01 6.000000000e+00
      vertex -1.201245229e+00 1.220124523e+01 6.000000000e+00
    endloop
  endfacet
  facet normal 0.000000000e+00 0.000000000e+00 1.000000000e+00
    outer loop
      vertex -1.201245229e+00 1.979875477e+01 6.000000000e+00
      vertex -5.000000000e+00 1.600000000e+01 6.000000000e+00
      vertex -1.201245229e+00 1.220124523e+01 6.000000000e+00
    endloop
  endfacet
  facet normal 0.000000000e+00 0.000000000e+00 -1.000000000e+00
    outer loop
      vertex -1.201245229e+00 1.979875477e+01 6.000000000e+00
      vertex 5.000000000e+00 1.600000000e+01 6.000000000e+00
      vertex 1.201245229e+00 1.220124523e+01 6.000000000e+00
    endloop
  endfacet
  facet normal -0.000000000e+00 0.000000000e+00 1.000000000e+00
    outer loop
      vertex -1.201245229e+00 1.979875477e+01 6.000000000e+00
      vertex 5.000000000e+00 1.600000000e+01 6.000000000e+00
      vertex 1.201245229e+00 1.979875477e+01 6.000000000e+00
    endloop
  endfacet
  facet normal -5.773502692e-01 5.773502692e-01 5.773502692e-01
    outer loop
      vertex -1.201245229e+00 1.979875477e+01 6.000000000e+00
      vertex -8.000000000e+00 1.900000000e+01 -0.000000000e+00
      vertex -9.235509529e+00 1.600000000e+01 1.764490471e+00
    endloop
  endfacet
  facet normal 5.773502692e-01 -5.773502692e-01 -5.773502692e-01
    outer loop
      vertex -1.201245229e+00 1.979875477e+01 6.000000000e+00
      vertex -5.000000000e+00 1.600000000e+01 6.000000000e+00
      vertex -9.235509529e+00 1.600000000e+01 1.764490471e+00
    endloop
  endfacet
  facet normal -5.773502692e-01 5.773502692e-01 5.773502692e-01
    outer loop
      vertex -1.201245229e+00 1.979875477e+01 6.000000000e+00
      vertex -3.000000000e+00 2.400000000e+01 -0.000000000e+00
      vertex -8.000000000e+00 1.900000000e+01 -0.000000000e+00
    endloop
  endfacet
  facet normal -5.497739471e-16 -8.191520443e-01 -5.735764364e-01
    outer loop
      vertex -1.201245229e+00 1.979875477e+01 6.000000000e+00
      vertex -3.000000000e+00 2.400000000e+01 -0.000000000e+00
      vertex -0.000000000e+00 2.523550953e+01 -1.764490471e+00
    endloop
  endfacet
  facet normal -1.374197202e-15 8.191520443e-01 5.735764364e-01
    outer loop
      vertex -1.201245229e+00 1.979875477e+01 6.000000000e+00
      vertex 3.000000000e+00 2.400000000e+01 -0.000000000e+00
      vertex -0.000000000e+00 2.523550953e+01 -1.764490471e+00
    endloop
  endfacet
  facet normal 2.422663251e-15 -8.191520443e-01 -5.735764364e-01
    outer loop
      vertex -1.201245229e+00 1.979875477e+01 6.000000000e+00
      vertex 3.000000000e+00 2.400000000e+01 -0.000000000e+00
      vertex 1.201245229e+00 1.979875477e+01 6.000000000e+00
    endloop
  endfacet
  facet normal 5.773502692e-01 5.773502692e-01 -5.773502692e-01
    outer loop
      vertex 0.000000000e+00 5.000000000e+00 6.000000000e+00
      vertex 8.000000000e+00 3.000000000e+00 1.200000000e+01
      vertex 8.000000000e+00 -1.235509529e+00 7.764490471e+00
    endloop
  endfacet
  facet normal -5.773502692e-01 -5.773502692e-01 5.773502692e-01
    outer loop
      vertex 0.000000000e+00 5.000000000e+00 6.000000000e+00
      vertex 5.000000000e+00 -0.000000000e+00 6.000000000e+00
      vertex 8.000000000e+00 -1.235509529e+00 7.764490471e+00
    endloop
  endfacet
  facet normal -5.773502692e-01 -5.773502692e-01 5.773502692e-01
    outer loop
      vertex 0.000000000e+00 5.000000000e+00 6.000000000e+00
      vertex 8.000000000e+00 3.000000000e+00 1.200000000e+01
      vertex 4.201245229e+00 6.798754771e+00 1.200000000e+01
    endloop
  endfacet
  facet normal -5.773502692e-01 -5.773502692e-01 -5.773502692e-01
    outer loop
      vertex 1.100000000e+01 1.600000000e+01 6.000000000e+00
      vertex 1.600000000e+01 1.100000000e+01 6.000000000e+00
      vertex 1.179875477e+01 9.201245229e+00 1.200000000e+01
    endloop
  endfacet
  facet normal 5.773502692e-01 5.773502692e-01 5.773502692e-01
    outer loop
      vertex 1.100000000e+01 1.600000000e+01 6.000000000e+00
      vertex 8.000000000e+00 1.300000000e+01 1.200000000e+01
      vertex 1.179875477e+01 9.201245229e+00 1.200000000e+01
    endloop
  endfacet
  facet normal -5.773502692e-01 -5.773502692e-01 -5.773502692e-01
    outer loop
      vertex 1.100000000e+01 1.600000000e+01 6.000000000e+00
      vertex 8.000000000e+00 1.300000000e+01 1.200000000e+01
      vertex 8.000000000e+00 1.723550953e+01 7.764490471e+00
    endloop
  endfacet
  facet normal 5.773502692e-01 5.773502692e-01 -5.773502692e-01
    outer loop
      vertex 1.100000000e+01 1.600000000e+01 6.000000000e+00
      vertex 1.600000000e+01 1.100000000e+01 6.000000000e+00
      vertex 1.723550953e+01 8.000000000e+00 4.235509529e+00
    endloop
  endfacet
  facet normal -5.773502692e-01 -5.773502692e-01 5.773502692e-01
    outer loop
      vertex 1.100000000e+01 1.600000000e+01 6.000000000e+00
      vertex 1.300000000e+01 8.000000000e+00 -0.000000000e+00
      vertex 1.723550953e+01 8.000000000e+00 4.235509529e+00
    endloop
  endfacet
  facet normal 5.773502692e-01 5.773502692e-01 -5.773502692e-01
    outer loop
      vertex 1.100000000e+01 1.600000000e+01 6.000000000e+00
      vertex 1.300000000e+01 8.000000000e+00 -0.000000000e+00
      vertex 9.201245229e+00 1.179875477e+01 -0.000000000e+00
    endloop
  endfacet
  facet normal 5.773502692e-01 5.773502692e-01 5.773502692e-01
    outer loop
      vertex 3.000000000e+00 8.000000000e+00 -0.000000000e+00
      vertex 5.000000000e+00 -0.000000000e+00 6.000000000e+00
      vertex 6.798754771e+00 4.201245229e+00 -0.000000000e+00
    endloop
  endfacet
  facet normal -5.773502692e-01 -5.773502692e-01 -5.773502692e-01
    outer loop
      vertex 3.000000000e+00 8.000000000e+00 -0.000000000e+00
      vertex 0.000000000e+00 5.000000000e+00 6.000000000e+00
      vertex -1.235509529e+00 8.000000000e+00 4.235509529e+00
    endloop
  endfacet
  facet normal 5.773502692e-01 5.773502692e-01 5.773502692e-01
    outer loop
      vertex 3.000000000e+00 8.000000000e+00 -0.000000000e+00
      vertex 0.000000000e+00 5.000000000e+00 6.000000000e+00
      vertex 5.000000000e+00 -0.000000000e+00 6.000000000e+00
    endloop
  endfacet
  facet normal -8.191520443e-01 0.000000000e+00 -5.735764364e-01
    outer loop
      vertex 1.179875477e+01 6.798754771e+00 1.200000000e+01
      vertex 1.600000000e+01 1.100000000e+01 6.000000000e+00
      vertex 1.723550953e+01 8.000000000e+00 4.235509529e+00
    endloop
  endfacet
  facet normal 8.191520443e-01 0.000000000e+00 5.735764364e-01
    outer loop
      vertex 1.179875477e+01 6.798754771e+00 1.200000000e+01
      vertex 1.600000000e+01 5.000000000e+00 6.000000000e+00
      vertex 1.723550953e+01 8.000000000e+00 4.235509529e+00
    endloop
  endfacet
  facet normal 8.191520443e-01 -0.000000000e+00 5.735764364e-01
    outer loop
      vertex 1.179875477e+01 6.798754771e+00 1.200000000e+01
      vertex 1.600000000e+01 1.100000000e+01 6.000000000e+00
      vertex 1.179875477e+01 9.201245229e+00 1.200000000e+01
    endloop
  endfacet
  facet normal 5.773502692e-01 -5.773502692e-01 5.773502692e-01
    outer loop
      vertex 1.179875477e+01 6.798754771e+00 1.200000000e+01
      vertex 8.000000000e+00 3.000000000e+00 1.200000000e+01
      vertex 8.000000000e+00 -1.235509529e+00 7.764490471e+00
    endloop
  endfacet
  facet normal -5.773502692e-01 5.773502692e-01 -5.773502692e-01
    outer loop
      vertex 1.179875477e+01 6.798754771e+00 1.200000000e+01
      vertex 1.100000000e+01 -0.000000000e+00 6.000000000e+00
      vertex 8.000000000e+00 -1.235509529e+00 7.764490471e+00
    endloop
  endfacet
  facet normal 5.773502692e-01 -5.773502692e-01 5.773502692e-01
    outer loop
      vertex 1.179875477e+01 6.798754771e+00 1.200000000e+01
      vertex 1.100000000e+01 -0.000000000e+00 6.000000000e+00
      vertex 1.600000000e+01 5.000000000e+00 6.000000000e+00
    endloop
  endfacet
  facet normal 0.000000000e+00 0.000000000e+00 -1.000000000e+00
    outer loop
      vertex 4.201245229e+00 9.201245229e+00 1.200000000e+01
      vertex 8.000000000e+00 3.000000000e+00 1.200000000e+01
      vertex 4.201245229e+00 6.798754771e+00 1.200000000e+01
    endloop
  endfacet
  facet normal 0.000000000e+00 0.000000000e+00 -1.000000000e+00
    outer loop
      vertex 4.201245229e+00 9.201245229e+00 1.200000000e+01
      vertex 8.000000000e+00 1.300000000e+01 1.200000000e+01
      vertex 1.179875477e+01 9.201245229e+00 1.200000000e+01
    endloop
  endfacet
  facet normal -0.000000000e+00 0.000000000e+00 1.000000000e+00
    outer loop
      vertex 4.201245229e+00 9.201245229e+00 1.200000000e+01
      vertex 1.179875477e+01 6.798754771e+00 1.200000000e+01
      vertex 1.179875477e+01 9.201245229e+00 1.200000000e+01
    endloop
  endfacet
  facet normal 0.000000000e+00 0.000000000e+00 -1.000000000e+00
    outer loop
      vertex 4.201245229e+00 9.201245229e+00 1.200000000e+01
      vertex 1.179875477e+01 6.798754771e+00 1.200000000e+01
      vertex 8.000000000e+00 3.000000000e+00 1.200000000e+01
    endloop
  endfacet
  facet normal -8.191520443e-01 0.000000000e+00 5.735764364e-01
    outer loop
      vertex 4.201245229e+00 9.201245229e+00 1.200000000e+01
      vertex 0.000000000e+00 5.000000000e+00 6.000000000e+00
      vertex 4.201245229e+00 6.798754771e+00 1.200000000e+01
    endloop
  endfacet
  facet normal -8.191520443e-01 0.000000000e+00 5.735764364e-01
    outer loop
      vertex 4.201245229e+00 9.201245229e+00 1.200000000e+01
      vertex -0.000000000e+00 1.100000000e+01 6.000000000e+00
      vertex -1.235509529e+00 8.000000000e+00 4.235509529e+00
    endloop
  endfacet
  facet normal 8.191520443e-01 0.000000000e+00 -5.735764364e-01
    outer loop
      vertex 4.201245229e+00 9.201245229e+00 1.200000000e+01
      vertex 0.000000000e+00 5.000000000e+00 6.000000000e+00
      vertex -1.235509529e+00 8.000000000e+00 4.235509529e+00
    endloop
  endfacet
  facet normal -5.773502692e-01 5.773502692e-01 5.773502692e-01
    outer loop
      vertex 4.201245229e+00 9.201245229e+00 1.200000000e+01
      vertex 8.000000000e+00 1.300000000e+01 1.200000000e+01
      vertex 8.000000000e+00 1.723550953e+01 7.764490471e+00
    endloop
  endfacet
  facet normal 5.773502692e-01 -5.773502692e-01 -5.773502692e-01
    outer loop
      vertex 4.201245229e+00 9.201245229e+00 1.200000000e+01
      vertex 5.000000000e+00 1.600000000e+01 6.000000000e+00
      vertex 8.000000000e+00 1.723550953e+01 7.764490471e+00
    endloop
  endfacet
  facet normal -5.773502692e-01 5.773502692e-01 5.773502692e-01
    outer loop
      vertex 4.201245229e+00 9.201245229e+00 1.200000000e+01
      vertex 5.000000000e+00 1.600000000e+01 6.000000000e+00
      vertex -0.000000000e+00 1.100000000e+01 6.000000000e+00
    endloop
  endfacet
  facet normal 2.290328671e-16 8.191520443e-01 5.735764364e-01
    outer loop
      vertex 9.201245229e+00 4.201245229e+00 -0.000000000e+00
      vertex 5.000000000e+00 -0.000000000e+00 6.000000000e+00
      vertex 8.000000000e+00 -1.235509529e+00 7.764490471e+00
    endloop
  endfacet
  facet normal -0.000000000e+00 -8.191520443e-01 -5.735764364e-01
    outer loop
      vertex 9.201245229e+00 4.201245229e+00 -0.000000000e+00
      vertex 5.000000000e+00 -0.000000000e+00 6.000000000e+00
      vertex 6.798754771e+00 4.201245229e+00 -0.000000000e+00
    endloop
  endfacet
  facet normal 2.748869736e-16 -8.191520443e-01 -5.735764364e-01
    outer loop
      vertex 9.201245229e+00 4.201245229e+00 -0.000000000e+00
      vertex 1.100000000e+01 -0.000000000e+00 6.000000000e+00
      vertex 8.000000000e+00 -1.235509529e+00 7.764490471e+00
    endloop
  endfacet
  facet normal -5.773502692e-01 5.773502692e-01 5.773502692e-01
    outer loop
      vertex 9.201245229e+00 4.201245229e+00 -0.000000000e+00
      vertex 1.600000000e+01 5.000000000e+00 6.000000000e+00
      vertex 1.723550953e+01 8.000000000e+00 4.235509529e+00
    endloop
  endfacet
  facet normal 5.773502692e-01 -5.773502692e-01 -5.773502692e-01
    outer loop
      vertex 9.201245229e+00 4.201245229e+00 -0.000000000e+00
      vertex 1.300000000e+01 8.000000000e+00 -0.000000000e+00
      vertex 1.723550953e+01 8.000000000e+00 4.235509529e+00
    endloop
  endfacet
  facet normal -5.773502692e-01 5.773502692e-01 5.773502692e-01
    outer loop
      vertex 9.201245229e+00 4.201245229e+00 -0.000000000e+00
      vertex 1.100000000e+01 -0.000000000e+00 6.000000000e+00
      vertex 1.600000000e+01 5.000000000e+00 6.000000000e+00
    endloop
  endfacet
  facet normal -0.000000000e+00 0.000000000e+00 1.000000000e+00
    outer loop
      vertex 6.798754771e+00 1.179875477e+01 -0.000000000e+00
      vertex 1.300000000e+01 8.000000000e+00 -0.000000000e+00
      vertex 9.201245229e+00 1.179875477e+01 -0.000000000e+00
    endloop
  endfacet
  facet normal 0.000000000e+00 0.000000000e+00 1.000000000e+00
    outer loop
      vertex 6.798754771e+00 1.179875477e+01 -0.000000000e+00
      vertex 3.000000000e+00 8.000000000e+00 -0.000000000e+00
      vertex 6.798754771e+00 4.201245229e+00 -0.000000000e+00
    endloop
  endfacet
  facet normal 0.000000000e+00 0.000000000e+00 -1.000000000e+00
    outer loop
      vertex 6.798754771e+00 1.179875477e+01 -0.000000000e+00
      vertex 9.201245229e+00 4.201245229e+00 -0.000000000e+00
      vertex 6.798754771e+00 4.201245229e+00 -0.000000000e+00
    endloop
  endfacet
  facet normal 0.000000000e+00 0.000000000e+00 1.000000000e+00
    outer loop
      vertex 6.798754771e+00 1.179875477e+01 -0.000000000e+00
      vertex 9.201245229e+00 4.201245229e+00 -0.000000000e+00
      vertex 1.300000000e+01 8.000000000e+00 -0.000000000e+00
    endloop
  endfacet
  facet normal 0.000000000e+00 -8.191520443e-01 5.735764364e-01
    outer loop
      vertex 6.798754771e+00 1.179875477e+01 -0.000000000e+00
      vertex 1.100000000e+01 1.600000000e+01 6.000000000e+00
      vertex 8.000000000e+00 1.723550953e+01 7.764490471e+00
    endloop
  endfacet
  facet normal 0.000000000e+00 8.191520443e-01 -5.735764364e-01
    outer loop
      vertex 6.798754771e+00 1.179875477e+01 -0.000000000e+00
      vertex 1.100000000e+01 1.600000000e+01 6.000000000e+00
      vertex 9.201245229e+00 1.179875477e+01 -0.000000000e+00
    endloop
  endfacet
  facet normal 2.748869736e-16 8.191520443e-01 -5.735764364e-01
    outer loop
      vertex 6.798754771e+00 1.179875477e+01 -0.000000000e+00
      vertex 5.000000000e+00 1.600000000e+01 6.000000000e+00
      vertex 8.000000000e+00 1.723550953e+01 7.764490471e+00
    endloop
  endfacet
  facet normal 5.773502692e-01 -5.773502692e-01 5.773502692e-01
    outer loop
      vertex 6.798754771e+00 1.179875477e+01 -0.000000000e+00
      vertex -0.000000000e+00 1.100000000e+01 6.000000000e+00
      vertex -1.235509529e+00 8.000000000e+00 4.235509529e+00
    endloop
  endfacet
  facet normal -5.773502692e-01 5.773502692e-01 -5.773502692e-01
    outer loop
      vertex 6.798754771e+00 1.179875477e+01 -0.000000000e+00
      vertex 3.000000000e+00 8.000000000e+00 -0.000000000e+00
      vertex -1.235509529e+00 8.000000000e+00 4.235509529e+00
    endloop
  endfacet
  facet normal 5.773502692e-01 -5.773502692e-01 5.773502692e-01
    outer loop
      vertex 6.798754771e+00 1.179875477e+01 -0.000000000e+00
      vertex 5.000000000e+00 1.600000000e+01 6.000000000e+00
      vertex -0.000000000e+00 1.100000000e+01 6.000000000e+00
    endloop
  endfacet
  facet normal 0.000000000e+00 8.191520443e-01 -5.735764364e-01
    outer loop
      vertex 3.000000000e+00 8.000000000e+00 -1.200000000e+01
      vertex -3.000000000e+00 8.000000000e+00 -1.200000000e+01
      vertex 0.000000000e+00 9.235509529e+00 -1.023550953e+01
    endloop
  endfacet
  facet normal 0.000000000e+00 -8.191520443e-01 5.735764364e-01
    outer loop
      vertex 3.000000000e+00 8.000000000e+00 -1.200000000e+01
      vertex -1.201245229e+00 3.798754771e+00 -1.800000000e+01
      vertex 1.201245229e+00 3.798754771e+00 -1.800000000e+01
    endloop
  endfacet
  facet normal 0.000000000e+00 8.191520443e-01 -5.735764364e-01
    outer loop
      vertex 3.000000000e+00 8.000000000e+00 -1.200000000e+01
      vertex -1.201245229e+00 3.798754771e+00 -1.800000000e+01
      vertex -3.000000000e+00 8.000000000e+00 -1.200000000e+01
    endloop
  endfacet
  facet normal -5.773502692e-01 -5.773502692e-01 -5.773502692e-01
    outer loop
      vertex 3.000000000e+00 8.000000000e+00 -1.200000000e+01
      vertex 8.000000000e+00 3.000000000e+00 -1.200000000e+01
      vertex 3.798754771e+00 1.201245229e+00 -6.000000000e+00
    endloop
  endfacet
  facet normal -5.773502692e-01 -5.773502692e-01 -5.773502692e-01
    outer loop
      vertex 3.000000000e+00 8.000000000e+00 -1.200000000e+01
      vertex 0.000000000e+00 5.000000000e+00 -6.000000000e+00
      vertex 0.000000000e+00 9.235509529e+00 -1.023550953e+01
    endloop
  endfacet
  facet normal 5.773502692e-01 5.773502692e-01 5.773502692e-01
    outer loop
      vertex 3.000000000e+00 8.000000000e+00 -1.200000000e+01
      vertex 0.000000000e+00 5.000000000e+00 -6.000000000e+00
      vertex 3.798754771e+00 1.201245229e+00 -6.000000000e+00
    endloop
  endfacet
  facet normal 8.191520443e-01 -0.000000000e+00 5.735764364e-01
    outer loop
      vertex 3.798754771e+00 -1.201245229e+00 -6.000000000e+00
      vertex 8.000000000e+00 3.000000000e+00 -1.200000000e+01
      vertex 3.798754771e+00 1.201245229e+00 -6.000000000e+00
    endloop
  endfacet
  facet normal -8.191520443e-01 2.290328671e-16 -5.735764364e-01
    outer loop
      vertex 3.798754771e+00 -1.201245229e+00 -6.000000000e+00
      vertex 8.000000000e+00 3.000000000e+00 -1.200000000e+01
      vertex 9.235509529e+00 -3.076740298e-15 -1.376449047e+01
    endloop
  endfacet
  facet normal 8.191520443e-01 2.748869736e-16 5.735764364e-01
    outer loop
      vertex 3.798754771e+00 -1.201245229e+00 -6.000000000e+00
      vertex 8.000000000e+00 -3.000000000e+00 -1.200000000e+01
      vertex 9.235509529e+00 -3.076740298e-15 -1.376449047e+01
    endloop
  endfacet
  facet normal 5.773502692e-01 -5.773502692e-01 -5.773502692e-01
    outer loop
      vertex -8.000000000e+00 3.000000000e+00 -1.200000000e+01
      vertex -3.000000000e+00 8.000000000e+00 -1.200000000e+01
      vertex 0.000000000e+00 9.235509529e+00 -1.023550953e+01
    endloop
  endfacet
  facet normal -5.773502692e-01 5.773502692e-01 5.773502692e-01
    outer loop
      vertex -8.000000000e+00 3.000000000e+00 -1.200000000e+01
      vertex 0.000000000e+00 5.000000000e+00 -6.000000000e+00
      vertex 0.000000000e+00 9.235509529e+00 -1.023550953e+01
    endloop
  endfacet
  facet normal 5.773502692e-01 -5.773502692e-01 -5.773502692e-01
    outer loop
      vertex -8.000000000e+00 3.000000000e+00 -1.200000000e+01
      vertex 0.000000000e+00 5.000000000e+00 -6.000000000e+00
      vertex -3.798754771e+00 1.201245229e+00 -6.000000000e+00
    endloop
  endfacet
  facet normal -8.191520443e-01 0.000000000e+00 5.735764364e-01
    outer loop
      vertex -8.000000000e+00 3.000000000e+00 -1.200000000e+01
      vertex -3.798754771e+00 -1.201245229e+00 -6.000000000e+00
      vertex -3.798754771e+00 1.201245229e+00 -6.000000000e+00
    endloop
  endfacet
  facet normal 8.191520443e-01 0.000000000e+00 -5.735764364e-01
    outer loop
      vertex -8.000000000e+00 3.000000000e+00 -1.200000000e+01
      vertex -3.798754771e+00 -1.201245229e+00 -6.000000000e+00
      vertex -8.000000000e+00 -3.000000000e+00 -1.200000000e+01
    endloop
  endfacet
  facet normal 8.191520443e-01 0.000000000e+00 -5.735764364e-01
    outer loop
      vertex -8.000000000e+00 3.000000000e+00 -1.200000000e+01
      vertex -8.000000000e+00 -3.000000000e+00 -1.200000000e+01
      vertex -9.235509529e+00 -3.076740298e-15 -1.376449047e+01
    endloop
  endfacet
  facet normal 5.773502692e-01 5.773502692e-01 -5.773502692e-01
    outer loop
      vertex 5.000000000e+00 -0.000000000e+00 -1.800000000e+01
      vertex 8.000000000e+00 3.000000000e+00 -1.200000000e+01
      vertex 9.235509529e+00 -3.076740298e-15 -1.376449047e+01
    endloop
  endfacet
  facet normal 5.773502692e-01 5.773502692e-01 -5.773502692e-01
    outer loop
      vertex 5.000000000e+00 -0.000000000e+00 -1.800000000e+01
      vertex 3.000000000e+00 8.000000000e+00 -1.200000000e+01
      vertex 8.000000000e+00 3.000000000e+00 -1.200000000e+01
    endloop
  endfacet
  facet normal -5.773502692e-01 -5.773502692e-01 5.773502692e-01
    outer loop
      vertex 5.000000000e+00 -0.000000000e+00 -1.800000000e+01
      vertex 3.000000000e+00 8.000000000e+00 -1.200000000e+01
      vertex 1.201245229e+00 3.798754771e+00 -1.800000000e+01
    endloop
  endfacet
  facet normal -5.773502692e-01 5.773502692e-01 5.773502692e-01
    outer loop
      vertex 3.000000000e+00 -8.000000000e+00 -1.200000000e+01
      vertex 8.000000000e+00 -3.000000000e+00 -1.200000000e+01
      vertex 9.235509529e+00 -3.076740298e-15 -1.376449047e+01
    endloop
  endfacet
  facet normal 5.773502692e-01 -5.773502692e-01 -5.773502692e-01
    outer loop
      vertex 3.000000000e+00 -8.000000000e+00 -1.200000000e+01
      vertex 5.000000000e+00 -0.000000000e+00 -1.800000000e+01
      vertex 9.235509529e+00 -3.076740298e-15 -1.376449047e+01
    endloop
  endfacet
  facet normal -5.773502692e-01 5.773502692e-01 5.773502692e-01
    outer loop
      vertex 3.000000000e+00 -8.000000000e+00 -1.200000000e+01
      vertex 5.000000000e+00 -0.000000000e+00 -1.800000000e+01
      vertex 1.201245229e+00 -3.798754771e+00 -1.800000000e+01
    endloop
  endfacet
  facet normal 5.773502692e-01 -5.773502692e-01 5.773502692e-01
    outer loop
      vertex -5.000000000e+00 -0.000000000e+00 -1.800000000e+01
      vertex -1.201245229e+00 3.798754771e+00 -1.800000000e+01
      vertex -3.000000000e+00 8.000000000e+00 -1.200000000e+01
    endloop
  endfacet
  facet normal 5.773502692e-01 -5.773502692e-01 5.773502692e-01
    outer loop
      vertex -5.000000000e+00 -0.000000000e+00 -1.800000000e+01
      vertex -8.000000000e+00 3.000000000e+00 -1.200000000e+01
      vertex -9.235509529e+00 -3.076740298e-15 -1.376449047e+01
    endloop
  endfacet
  facet normal -5.773502692e-01 5.773502692e-01 -5.773502692e-01
    outer loop
      vertex -5.000000000e+00 -0.000000000e+00 -1.800000000e+01
      vertex -8.000000000e+00 3.000000000e+00 -1.200000000e+01
      vertex -3.000000000e+00 8.000000000e+00 -1.200000000e+01
    endloop
  endfacet
  facet normal 0.000000000e+00 0.000000000e+00 -1.000000000e+00
    outer loop
      vertex 0.000000000e+00 -5.000000000e+00 -6.000000000e+00
      vertex 0.000000000e+00 5.000000000e+00 -6.000000000e+00
      vertex 3.798754771e+00 1.201245229e+00 -6.000000000e+00
    endloop
  endfacet
  facet normal 0.000000000e+00 -0.000000000e+00 1.000000000e+00
    outer loop
      vertex 0.000000000e+00 -5.000000000e+00 -6.000000000e+00
      vertex 0.000000000e+00 5.000000000e+00 -6.000000000e+00
      vertex -3.798754771e+00 1.201245229e+00 -6.000000000e+00
    endloop
  endfacet
  facet normal 0.000000000e+00 0.000000000e+00 -1.000000000e+00
    outer loop
      vertex 0.000000000e+00 -5.000000000e+00 -6.000000000e+00
      vertex -3.798754771e+00 -1.201245229e+00 -6.000000000e+00
      vertex -3.798754771e+00 1.201245229e+00 -6.000000000e+00
    endloop
  endfacet
  facet normal 0.000000000e+00 0.000000000e+00 1.000000000e+00
    outer loop
      vertex 0.000000000e+00 -5.000000000e+00 -6.000000000e+00
      vertex 3.798754771e+00 -1.201245229e+00 -6.000000000e+00
      vertex 3.798754771e+00 1.201245229e+00 -6.000000000e+00
    endloop
  endfacet
  facet normal -5.773502692e-01 5.773502692e-01 -5.773502692e-01
    outer loop
      vertex 0.000000000e+00 -5.000000000e+00 -6.000000000e+00
      vertex 3.798754771e+00 -1.201245229e+00 -6.000000000e+00
      vertex 8.000000000e+00 -3.000000000e+00 -1.200000000e+01
    endloop
  endfacet
  facet normal 5.773502692e-01 -5.773502692e-01 5.773502692e-01
    outer loop
      vertex 0.000000000e+00 -5.000000000e+00 -6.000000000e+00
      vertex 3.000000000e+00 -8.000000000e+00 -1.200000000e+01
      vertex 8.000000000e+00 -3.000000000e+00 -1.200000000e+01
    endloop
  endfacet
  facet normal -5.773502692e-01 5.773502692e-01 -5.773502692e-01
    outer loop
      vertex 0.000000000e+00 -5.000000000e+00 -6.000000000e+00
      vertex 3.000000000e+00 -8.000000000e+00 -1.200000000e+01
      vertex 0.000000000e+00 -9.235509529e+00 -1.023550953e+01
    endloop
  endfacet
  facet normal -5.773502692e-01 -5.773502692e-01 5.773502692e-01
    outer loop
      vertex 0.000000000e+00 -5.000000000e+00 -6.000000000e+00
      vertex -3.798754771e+00 -1.201245229e+00 -6.000000000e+00
      vertex -8.000000000e+00 -3.000000000e+00 -1.200000000e+01
    endloop
  endfacet
  facet normal -5.773502692e-01 -5.773502692e-01 5.773502692e-01
    outer loop
      vertex 0.000000000e+00 -5.000000000e+00 -6.000000000e+00
      vertex -3.000000000e+00 -8.000000000e+00 -1.200000000e+01
      vertex 0.000000000e+00 -9.235509529e+00 -1.023550953e+01
    endloop
  endfacet
  facet normal 5.773502692e-01 5.773502692e-01 -5.773502692e-01
    outer loop
      vertex 0.000000000e+00 -5.000000000e+00 -6.000000000e+00
      vertex -3.000000000e+00 -8.000000000e+00 -1.200000000e+01
      vertex -8.000000000e+00 -3.000000000e+00 -1.200000000e+01
    endloop
  endfacet
  facet normal 0.000000000e+00 0.000000000e+00 -1.000000000e+00
    outer loop
      vertex -1.201245229e+00 -3.798754771e+00 -1.800000000e+01
      vertex -1.201245229e+00 3.798754771e+00 -1.800000000e+01
      vertex 1.201245229e+00 3.798754771e+00 -1.800000000e+01
    endloop
  endfacet
  facet normal 0.000000000e+00 0.000000000e+00 -1.000000000e+00
    outer loop
      vertex -1.201245229e+00 -3.798754771e+00 -1.800000000e+01
      vertex 5.000000000e+00 -0.000000000e+00 -1.800000000e+01
      vertex 1.201245229e+00 -3.798754771e+00 -1.800000000e+01
    endloop
  endfacet
  facet normal 0.000000000e+00 0.000000000e+00 1.000000000e+00
    outer loop
      vertex -1.201245229e+00 -3.798754771e+00 -1.800000000e+01
      vertex 5.000000000e+00 -0.000000000e+00 -1.800000000e+01
      vertex 1.201245229e+00 3.798754771e+00 -1.800000000e+01
    endloop
  endfacet
  facet normal 0.000000000e+00 0.000000000e+00 -1.000000000e+00
    outer loop
      vertex -1.201245229e+00 -3.798754771e+00 -1.800000000e+01
      vertex -5.000000000e+00 -0.000000000e+00 -1.800000000e+01
      vertex -1.201245229e+00 3.798754771e+00 -1.800000000e+01
    endloop
  endfacet
  facet normal -0.000000000e+00 8.191520443e-01 5.735764364e-01
    outer loop
      vertex -1.201245229e+00 -3.798754771e+00 -1.800000000e+01
      vertex 3.000000000e+00 -8.000000000e+00 -1.200000000e+01
      vertex 1.201245229e+00 -3.798754771e+00 -1.800000000e+01
    endloop
  endfacet
  facet normal 2.290328671e-16 -8.191520443e-01 -5.735764364e-01
    outer loop
      vertex -1.201245229e+00 -3.798754771e+00 -1.800000000e+01
      vertex 3.000000000e+00 -8.000000000e+00 -1.200000000e+01
      vertex 0.000000000e+00 -9.235509529e+00 -1.023550953e+01
    endloop
  endfacet
  facet normal 2.748869736e-16 8.191520443e-01 5.735764364e-01
    outer loop
      vertex -1.201245229e+00 -3.798754771e+00 -1.800000000e+01
      vertex -3.000000000e+00 -8.000000000e+00 -1.200000000e+01
      vertex 0.000000000e+00 -9.235509529e+00 -1.023550953e+01
    endloop
  endfacet
  facet normal -5.773502692e-01 -5.773502692e-01 -5.773502692e-01
    outer loop
      vertex -1.201245229e+00 -3.798754771e+00 -1.800000000e+01
      vertex -8.000000000e+00 -3.000000000e+00 -1.200000000e+01
      vertex -9.235509529e+00 -3.076740298e-15 -1.376449047e+01
    endloop
  endfacet
  facet normal 5.773502692e-01 5.773502692e-01 5.773502692e-01
    outer loop
      vertex -1.201245229e+00 -3.798754771e+00 -1.800000000e+01
      vertex -5.000000000e+00 -0.000000000e+00 -1.800000000e+01
      vertex -9.235509529e+00 -3.076740298e-15 -1.376449047e+01
    endloop
  endfacet
  facet normal -5.773502692e-01 -5.773502692e-01 -5.773502692e-01
    outer loop
      vertex -1.201245229e+00 -3.798754771e+00 -1.800000000e+01
      vertex -3.000000000e+00 -8.000000000e+00 -1.200000000e+01
      vertex -8.000000000e+00 -3.000000000e+00 -1.200000000e+01
    endloop
  endfacet
  facet normal 0.000000000e+00 8.191520443e-01 5.735764364e-01
    outer loop
      vertex 3.000000000e+00 -8.000000000e+00 1.200000000e+01
      vertex -3.000000000e+00 -8.000000000e+00 1.200000000e+01
      vertex 0.000000000e+00 -9.235509529e+00 1.376449047e+01
    endloop
  endfacet
  facet normal 0.000000000e+00 -8.191520443e-01 -5.735764364e-01
    outer loop
      vertex 3.000000000e+00 -8.000000000e+00 1.200000000e+01
      vertex -1.201245229e+00 -3.798754771e+00 6.000000000e+00
      vertex 1.201245229e+00 -3.798754771e+00 6.000000000e+00
    endloop
  endfacet
  facet normal 0.000000000e+00 8.191520443e-01 5.735764364e-01
    outer loop
      vertex 3.000000000e+00 -8.000000000e+00 1.200000000e+01
      vertex -1.201245229e+00 -3.798754771e+00 6.000000000e+00
      vertex -3.000000000e+00 -8.000000000e+00 1.200000000e+01
    endloop
  endfacet
  facet normal -5.773502692e-01 -5.773502692e-01 5.773502692e-01
    outer loop
      vertex -8.000000000e+00 -3.000000000e+00 1.200000000e+01
      vertex -3.000000000e+00 -8.000000000e+00 1.200000000e+01
      vertex 0.000000000e+00 -9.235509529e+00 1.376449047e+01
    endloop
  endfacet
  facet normal 5.773502692e-01 5.773502692e-01 -5.773502692e-01
    outer loop
      vertex -8.000000000e+00 -3.000000000e+00 1.200000000e+01
      vertex 0.000000000e+00 -5.000000000e+00 1.800000000e+01
      vertex 0.000000000e+00 -9.235509529e+00 1.376449047e+01
    endloop
  endfacet
  facet normal -5.773502692e-01 -5.773502692e-01 5.773502692e-01
    outer loop
      vertex -8.000000000e+00 -3.000000000e+00 1.200000000e+01
      vertex 0.000000000e+00 -5.000000000e+00 1.800000000e+01
      vertex -3.798754771e+00 -1.201245229e+00 1.800000000e+01
    endloop
  endfacet
  facet normal -5.773502692e-01 5.773502692e-01 5.773502692e-01
    outer loop
      vertex 5.000000000e+00 -0.000000000e+00 6.000000000e+00
      vertex 8.000000000e+00 -3.000000000e+00 1.200000000e+01
      vertex 9.235509529e+00 0.000000000e+00 1.023550953e+01
    endloop
  endfacet
  facet normal -5.773502692e-01 5.773502692e-01 5.773502692e-01
    outer loop
      vertex 5.000000000e+00 -0.000000000e+00 6.000000000e+00
      vertex 3.000000000e+00 -8.000000000e+00 1.200000000e+01
      vertex 8.000000000e+00 -3.000000000e+00 1.200000000e+01
    endloop
  endfacet
  facet normal 5.773502692e-01 -5.773502692e-01 -5.773502692e-01
    outer loop
      vertex 5.000000000e+00 -0.000000000e+00 6.000000000e+00
      vertex 3.000000000e+00 -8.000000000e+00 1.200000000e+01
      vertex 1.201245229e+00 -3.798754771e+00 6.000000000e+00
    endloop
  endfacet
  facet normal -5.773502692e-01 -5.773502692e-01 -5.773502692e-01
    outer loop
      vertex 3.000000000e+00 8.000000000e+00 1.200000000e+01
      vertex 8.000000000e+00 3.000000000e+00 1.200000000e+01
      vertex 3.798754771e+00 1.201245229e+00 1.800000000e+01
    endloop
  endfacet
  facet normal 5.773502692e-01 5.773502692e-01 5.773502692e-01
    outer loop
      vertex 3.000000000e+00 8.000000000e+00 1.200000000e+01
      vertex 0.000000000e+00 5.000000000e+00 1.800000000e+01
      vertex 3.798754771e+00 1.201245229e+00 1.800000000e+01
    endloop
  endfacet
  facet normal -5.773502692e-01 -5.773502692e-01 -5.773502692e-01
    outer loop
      vertex 3.000000000e+00 8.000000000e+00 1.200000000e+01
      vertex 0.000000000e+00 5.000000000e+00 1.800000000e+01
      vertex 0.000000000e+00 9.235509529e+00 1.376449047e+01
    endloop
  endfacet
  facet normal 5.773502692e-01 5.773502692e-01 -5.773502692e-01
    outer loop
      vertex 3.000000000e+00 8.000000000e+00 1.200000000e+01
      vertex 8.000000000e+00 3.000000000e+00 1.200000000e+01
      vertex 9.235509529e+00 0.000000000e+00 1.023550953e+01
    endloop
  endfacet
  facet normal -5.773502692e-01 -5.773502692e-01 5.773502692e-01
    outer loop
      vertex 3.000000000e+00 8.000000000e+00 1.200000000e+01
      vertex 5.000000000e+00 -0.000000000e+00 6.000000000e+00
      vertex 9.235509529e+00 0.000000000e+00 1.023550953e+01
    endloop
  endfacet
  facet normal 5.773502692e-01 5.773502692e-01 -5.773502692e-01
    outer loop
      vertex 3.000000000e+00 8.000000000e+00 1.200000000e+01
      vertex 5.000000000e+00 -0.000000000e+00 6.000000000e+00
      vertex 1.201245229e+00 3.798754771e+00 6.000000000e+00
    endloop
  endfacet
  facet normal -5.773502692e-01 -5.773502692e-01 -5.773502692e-01
    outer loop
      vertex -5.000000000e+00 -0.000000000e+00 6.000000000e+00
      vertex -1.201245229e+00 -3.798754771e+00 6.000000000e+00
      vertex -3.000000000e+00 -8.000000000e+00 1.200000000e+01
    endloop
  endfacet
  facet normal -5.773502692e-01 -5.773502692e-01 -5.773502692e-01
    outer loop
      vertex -5.000000000e+00 -0.000000000e+00 6.000000000e+00
      vertex -8.000000000e+00 -3.000000000e+00 1.200000000e+01
      vertex -9.235509529e+00 0.000000000e+00 1.023550953e+01
    endloop
  endfacet
  facet normal 5.773502692e-01 5.773502692e-01 5.773502692e-01
    outer loop
      vertex -5.000000000e+00 -0.000000000e+00 6.000000000e+00
      vertex -8.000000000e+00 -3.000000000e+00 1.200000000e+01
      vertex -3.000000000e+00 -8.000000000e+00 1.200000000e+01
    endloop
  endfacet
  facet normal -8.191520443e-01 2.290328671e-16 -5.735764364e-01
    outer loop
      vertex 3.798754771e+00 -1.201245229e+00 1.800000000e+01
      vertex 8.000000000e+00 3.000000000e+00 1.200000000e+01
      vertex 9.235509529e+00 0.000000000e+00 1.023550953e+01
    endloop
  endfacet
  facet normal 8.191520443e-01 -2.748869736e-16 5.735764364e-01
    outer loop
      vertex 3.798754771e+00 -1.201245229e+00 1.800000000e+01
      vertex 8.000000000e+00 -3.000000000e+00 1.200000000e+01
      vertex 9.235509529e+00 0.000000000e+00 1.023550953e+01
    endloop
  endfacet
  facet normal 8.191520443e-01 -0.000000000e+00 5.735764364e-01
    outer loop
      vertex 3.798754771e+00 -1.201245229e+00 1.800000000e+01
      vertex 8.000000000e+00 3.000000000e+00 1.200000000e+01
      vertex 3.798754771e+00 1.201245229e+00 1.800000000e+01
    endloop
  endfacet
  facet normal 5.773502692e-01 -5.773502692e-01 5.773502692e-01
    outer loop
      vertex 3.798754771e+00 -1.201245229e+00 1.800000000e+01
      vertex 0.000000000e+00 -5.000000000e+00 1.800000000e+01
      vertex 0.000000000e+00 -9.235509529e+00 1.376449047e+01
    endloop
  endfacet
  facet normal -5.773502692e-01 5.773502692e-01 -5.773502692e-01
    outer loop
      vertex 3.798754771e+00 -1.201245229e+00 1.800000000e+01
      vertex 3.000000000e+00 -8.000000000e+00 1.200000000e+01
      vertex 0.000000000e+00 -9.235509529e+00 1.376449047e+01
    endloop
  endfacet
  facet normal 5.773502692e-01 -5.773502692e-01 5.773502692e-01
    outer loop
      vertex 3.798754771e+00 -1.201245229e+00 1.800000000e+01
      vertex 3.000000000e+00 -8.000000000e+00 1.200000000e+01
      vertex 8.000000000e+00 -3.000000000e+00 1.200000000e+01
    endloop
  endfacet
  facet normal 0.000000000e+00 0.000000000e+00 -1.000000000e+00
    outer loop
      vertex -3.798754771e+00 1.201245229e+00 1.800000000e+01
      vertex 0.000000000e+00 -5.000000000e+00 1.800000000e+01
      vertex -3.798754771e+00 -1.201245229e+00 1.800000000e+01
    endloop
  endfacet
  facet normal 0.000000000e+00 0.000000000e+00 -1.000000000e+00
    outer loop
      vertex -3.798754771e+00 1.201245229e+00 1.800000000e+01
      vertex 0.000000000e+00 5.000000000e+00 1.800000000e+01
      vertex 3.798754771e+00 1.201245229e+00 1.800000000e+01
    endloop
  endfacet
  facet normal -0.000000000e+00 0.000000000e+00 1.000000000e+00
    outer loop
      vertex -3.798754771e+00 1.201245229e+00 1.800000000e+01
      vertex 3.798754771e+00 -1.201245229e+00 1.800000000e+01
      vertex 3.798754771e+00 1.201245229e+00 1.800000000e+01
    endloop
  endfacet
  facet normal 0.000000000e+00 0.000000000e+00 -1.000000000e+00
    outer loop
      vertex -3.798754771e+00 1.201245229e+00 1.800000000e+01
      vertex 3.798754771e+00 -1.201245229e+00 1.800000000e+01
      vertex 0.000000000e+00 -5.000000000e+00 1.800000000e+01
    endloop
  endfacet
  facet normal -8.191520443e-01 0.000000000e+00 5.735764364e-01
    outer loop
      vertex -3.798754771e+00 1.201245229e+00 1.800000000e+01
      vertex -8.000000000e+00 -3.000000000e+00 1.200000000e+01
      vertex -3.798754771e+00 -1.201245229e+00 1.800000000e+01
    endloop
  endfacet
  facet normal -8.191520443e-01 2.748869736e-16 5.735764364e-01
    outer loop
      vertex -3.798754771e+00 1.201245229e+00 1.800000000e+01
      vertex -8.000000000e+00 3.000000000e+00 1.200000000e+01
      vertex -9.235509529e+00 0.000000000e+00 1.023550953e+01
    endloop
  endfacet
  facet normal 8.191520443e-01 2.290328671e-16 -5.735764364e-01
    outer loop
      vertex -3.798754771e+00 1.201245229e+00 1.800000000e+01
      vertex -8.000000000e+00 -3.000000000e+00 1.200000000e+01
      vertex -9.235509529e+00 0.000000000e+00 1.023550953e+01
    endloop
  endfacet
  facet normal -5.773502692e-01 5.773502692e-01 5.773502692e-01
    outer loop
      vertex -3.798754771e+00 1.201245229e+00 1.800000000e+01
      vertex 0.000000000e+00 5.000000000e+00 1.800000000e+01
      vertex 0.000000000e+00 9.235509529e+00 1.376449047e+01
    endloop
  endfacet
  facet normal 5.773502692e-01 -5.773502692e-01 -5.773502692e-01
    outer loop
      vertex -3.798754771e+00 1.201245229e+00 1.800000000e+01
      vertex -3.000000000e+00 8.000000000e+00 1.200000000e+01
      vertex 0.000000000e+00 9.235509529e+00 1.376449047e+01
    endloop
  endfacet
  facet normal -5.773502692e-01 5.773502692e-01 5.773502692e-01
    outer loop
      vertex -3.798754771e+00 1.201245229e+00 1.800000000e+01
      vertex -3.000000000e+00 8.000000000e+00 1.200000000e+01
      vertex -8.000000000e+00 3.000000000e+00 1.200000000e+01
    endloop
  endfacet
  facet normal 0.000000000e+00 0.000000000e+00 1.000000000e+00
    outer loop
      vertex -1.201245229e+00 3.798754771e+00 6.000000000e+00
      vertex -1.201245229e+00 -3.798754771e+00 6.000000000e+00
      vertex 1.201245229e+00 -3.798754771e+00 6.000000000e+00
    endloop
  endfacet
  facet normal -0.000000000e+00 0.000000000e+00 1.000000000e+00
    outer loop
      vertex -1.201245229e+00 3.798754771e+00 6.000000000e+00
      vertex 5.000000000e+00 -0.000000000e+00 6.000000000e+00
      vertex 1.201245229e+00 3.798754771e+00 6.000000000e+00
    endloop
  endfacet
  facet normal 0.000000000e+00 0.000000000e+00 -1.000000000e+00
    outer loop
      vertex -1.201245229e+00 3.798754771e+00 6.000000000e+00
      vertex 5.000000000e+00 -0.000000000e+00 6.000000000e+00
      vertex 1.201245229e+00 -3.798754771e+00 6.000000000e+00
    endloop
  endfacet
  facet normal 0.000000000e+00 0.000000000e+00 1.000000000e+00
    outer loop
      vertex -1.201245229e+00 3.798754771e+00 6.000000000e+00
      vertex -5.000000000e+00 -0.000000000e+00 6.000000000e+00
      vertex -1.201245229e+00 -3.798754771e+00 6.000000000e+00
    endloop
  endfacet
  facet normal 0.000000000e+00 -8.191520443e-01 5.735764364e-01
    outer loop
      vertex -1.201245229e+00 3.798754771e+00 6.000000000e+00
      vertex 3.000000000e+00 8.000000000e+00 1.200000000e+01
      vertex 0.000000000e+00 9.235509529e+00 1.376449047e+01
    endloop
  endfacet
  facet normal 0.000000000e+00 8.191520443e-01 -5.735764364e-01
    outer loop
      vertex -1.201245229e+00 3.798754771e+00 6.000000000e+00
      vertex 3.000000000e+00 8.000000000e+00 1.200000000e+01
      vertex 1.201245229e+00 3.798754771e+00 6.000000000e+00
    endloop
  endfacet
  facet normal 0.000000000e+00 8.191520443e-01 -5.735764364e-01
    outer loop
      vertex -1.201245229e+00 3.798754771e+00 6.000000000e+00
      vertex -3.000000000e+00 8.000000000e+00 1.200000000e+01
      vertex 0.000000000e+00 9.235509529e+00 1.376449047e+01
    endloop
  endfacet
  facet normal 5.773502692e-01 -5.773502692e-01 5.773502692e-01
    outer loop
      vertex -1.201245229e+00 3.798754771e+00 6.000000000e+00
      vertex -8.000000000e+00 3.000000000e+00 1.200000000e+01
      vertex -9.235509529e+00 0.000000000e+00 1.023550953e+01
    endloop
  endfacet
  facet normal -5.773502692e-01 5.773502692e-01 -5.773502692e-01
    outer loop
      vertex -1.201245229e+00 3.798754771e+00 6.000000000e+00
      vertex -5.000000000e+00 -0.000000000e+00 6.000000000e+00
      vertex -9.235509529e+00 0.000000000e+00 1.023550953e+01
    endloop
  endfacet
  facet normal 5.773502692e-01 -5.773502692e-01 5.773502692e-01
    outer loop
      vertex -1.201245229e+00 3.798754771e+00 6.000000000e+00
      vertex -3.000000000e+00 8.000000000e+00 1.200000000e+01
      vertex -8.000000000e+00 3.000000000e+00 1.200000000e+01
    endloop
  endfacet
endsolid set_bt_octs_5blocks
