solid tetrahedron
  facet normal 0.000000000e+00 -0.000000000e+00 -1.000000000e+00
    outer loop
      vertex 5.000000000e+00 8.660000000e+00 -0.000000000e+00
      vertex 1.000000000e+01 -0.000000000e+00 -0.000000000e+00
      vertex -0.000000000e+00 -0.000000000e+00 -0.000000000e+00
    endloop
  endfacet
  facet normal 0.000000000e+00 9.426272252e-01 -3.338471422e-01
    outer loop
      vertex 5.000000000e+00 2.890000000e+00 8.160000000e+00
      vertex 1.000000000e+01 -0.000000000e+00 -0.000000000e+00
      vertex -0.000000000e+00 -0.000000000e+00 -0.000000000e+00
    endloop
  endfacet
  facet normal -8.164884608e-01 4.714136610e-01 3.333402970e-01
    outer loop
      vertex 5.000000000e+00 2.890000000e+00 8.160000000e+00
      vertex 5.000000000e+00 8.660000000e+00 -0.000000000e+00
      vertex -0.000000000e+00 -0.000000000e+00 -0.000000000e+00
    endloop
  endfacet
  facet normal -8.164884608e-01 -4.714136610e-01 -3.333402970e-01
    outer loop
      vertex 5.000000000e+00 2.890000000e+00 8.160000000e+00
      vertex 5.000000000e+00 8.660000000e+00 -0.000000000e+00
      vertex 1.000000000e+01 -0.000000000e+00 -0.000000000e+00
    endloop
  endfacet
endsolid tetrahedron
