solid bf8_sls
  facet normal -4.472135955e-01 -7.745966692e-01 4.472135955e-01
    outer loop
      vertex -7.008885599e+01 6.933333333e+01 5.000000000e+01
      vertex -6.004442800e+01 5.799153207e+00 -5.000000000e+01
      vertex -6.004442800e+01 6.353418013e+01 5.000000000e+01
    endloop
  endfacet
  facet normal -4.472135955e-01 -7.745966692e-01 4.472135955e-01
    outer loop
      vertex -7.008885599e+01 6.933333333e+01 5.000000000e+01
      vertex -1.700888560e+02 6.933333333e+01 -5.000000000e+01
      vertex -6.004442800e+01 5.799153207e+00 -5.000000000e+01
    endloop
  endfacet
  facet normal 0.000000000e+00 0.000000000e+00 1.000000000e+00
    outer loop
      vertex -1.801332840e+02 -6.353418013e+01 5.000000000e+01
      vertex -7.008885599e+01 6.933333333e+01 5.000000000e+01
      vertex -1.801332840e+02 5.799153207e+00 5.000000000e+01
    endloop
  endfacet
  facet normal 0.000000000e+00 0.000000000e+00 1.000000000e+00
    outer loop
      vertex -1.801332840e+02 -6.353418013e+01 5.000000000e+01
      vertex -6.004442800e+01 -5.799153207e+00 5.000000000e+01
      vertex -6.004442800e+01 6.353418013e+01 5.000000000e+01
    endloop
  endfacet
  facet normal 0.000000000e+00 0.000000000e+00 -1.000000000e+00
    outer loop
      vertex -1.801332840e+02 -6.353418013e+01 5.000000000e+01
      vertex -6.004442800e+01 -5.799153207e+00 5.000000000e+01
      vertex -1.700888560e+02 -6.933333333e+01 5.000000000e+01
    endloop
  endfacet
  facet normal 0.000000000e+00 0.000000000e+00 -1.000000000e+00
    outer loop
      vertex -1.801332840e+02 -6.353418013e+01 5.000000000e+01
      vertex -7.008885599e+01 6.933333333e+01 5.000000000e+01
      vertex -6.004442800e+01 6.353418013e+01 5.000000000e+01
    endloop
  endfacet
  facet normal 4.472135955e-01 -7.745966692e-01 -4.472135955e-01
    outer loop
      vertex -1.801332840e+02 6.353418013e+01 -5.000000000e+01
      vertex -7.008885599e+01 6.933333333e+01 5.000000000e+01
      vertex -1.801332840e+02 5.799153207e+00 5.000000000e+01
    endloop
  endfacet
  facet normal -4.472135955e-01 7.745966692e-01 4.472135955e-01
    outer loop
      vertex -1.801332840e+02 6.353418013e+01 -5.000000000e+01
      vertex -7.008885599e+01 6.933333333e+01 5.000000000e+01
      vertex -1.700888560e+02 6.933333333e+01 -5.000000000e+01
    endloop
  endfacet
  facet normal -1.000000000e+00 0.000000000e+00 0.000000000e+00
    outer loop
      vertex -1.801332840e+02 6.353418013e+01 -5.000000000e+01
      vertex -1.801332840e+02 -6.353418013e+01 5.000000000e+01
      vertex -1.801332840e+02 5.799153207e+00 5.000000000e+01
    endloop
  endfacet
  facet normal 1.000000000e+00 0.000000000e+00 0.000000000e+00
    outer loop
      vertex -1.801332840e+02 6.353418013e+01 -5.000000000e+01
      vertex -1.801332840e+02 -6.353418013e+01 5.000000000e+01
      vertex -1.801332840e+02 -5.799153207e+00 -5.000000000e+01
    endloop
  endfacet
  facet normal 4.472135955e-01 7.745966692e-01 4.472135955e-01
    outer loop
      vertex -7.008885599e+01 -6.933333333e+01 -5.000000000e+01
      vertex -1.801332840e+02 -6.353418013e+01 5.000000000e+01
      vertex -1.700888560e+02 -6.933333333e+01 5.000000000e+01
    endloop
  endfacet
  facet normal -4.472135955e-01 -7.745966692e-01 -4.472135955e-01
    outer loop
      vertex -7.008885599e+01 -6.933333333e+01 -5.000000000e+01
      vertex -1.801332840e+02 -6.353418013e+01 5.000000000e+01
      vertex -1.801332840e+02 -5.799153207e+00 -5.000000000e+01
    endloop
  endfacet
  facet normal 0.000000000e+00 0.000000000e+00 -1.000000000e+00
    outer loop
      vertex -6.004442800e+01 -6.353418013e+01 -5.000000000e+01
      vertex -1.700888560e+02 6.933333333e+01 -5.000000000e+01
      vertex -6.004442800e+01 5.799153207e+00 -5.000000000e+01
    endloop
  endfacet
  facet normal 0.000000000e+00 0.000000000e+00 1.000000000e+00
    outer loop
      vertex -6.004442800e+01 -6.353418013e+01 -5.000000000e+01
      vertex -1.801332840e+02 6.353418013e+01 -5.000000000e+01
      vertex -1.801332840e+02 -5.799153207e+00 -5.000000000e+01
    endloop
  endfacet
  facet normal 0.000000000e+00 0.000000000e+00 -1.000000000e+00
    outer loop
      vertex -6.004442800e+01 -6.353418013e+01 -5.000000000e+01
      vertex -1.801332840e+02 6.353418013e+01 -5.000000000e+01
      vertex -1.700888560e+02 6.933333333e+01 -5.000000000e+01
    endloop
  endfacet
  facet normal -0.000000000e+00 0.000000000e+00 -1.000000000e+00
    outer loop
      vertex -6.004442800e+01 -6.353418013e+01 -5.000000000e+01
      vertex -7.008885599e+01 -6.933333333e+01 -5.000000000e+01
      vertex -1.801332840e+02 -5.799153207e+00 -5.000000000e+01
    endloop
  endfacet
  facet normal -1.000000000e+00 0.000000000e+00 0.000000000e+00
    outer loop
      vertex -6.004442800e+01 -6.353418013e+01 -5.000000000e+01
      vertex -6.004442800e+01 -5.799153207e+00 5.000000000e+01
      vertex -6.004442800e+01 6.353418013e+01 5.000000000e+01
    endloop
  endfacet
  facet normal 1.000000000e+00 0.000000000e+00 0.000000000e+00
    outer loop
      vertex -6.004442800e+01 -6.353418013e+01 -5.000000000e+01
      vertex -6.004442800e+01 5.799153207e+00 -5.000000000e+01
      vertex -6.004442800e+01 6.353418013e+01 5.000000000e+01
    endloop
  endfacet
  facet normal 4.472135955e-01 -7.745966692e-01 4.472135955e-01
    outer loop
      vertex -6.004442800e+01 -6.353418013e+01 -5.000000000e+01
      vertex -6.004442800e+01 -5.799153207e+00 5.000000000e+01
      vertex -1.700888560e+02 -6.933333333e+01 5.000000000e+01
    endloop
  endfacet
  facet normal -4.472135955e-01 7.745966692e-01 -4.472135955e-01
    outer loop
      vertex -6.004442800e+01 -6.353418013e+01 -5.000000000e+01
      vertex -7.008885599e+01 -6.933333333e+01 -5.000000000e+01
      vertex -1.700888560e+02 -6.933333333e+01 5.000000000e+01
    endloop
  endfacet
  facet normal -5.000000000e-01 8.660254038e-01 -2.049642507e-16
    outer loop
      vertex -8.504442800e+01 1.588995766e+02 5.000000000e+01
      vertex -9.508885599e+01 1.531004234e+02 -5.000000000e+01
      vertex -1.450888560e+02 1.242329099e+02 5.000000000e+01
    endloop
  endfacet
  facet normal 5.000000000e-01 -8.660254038e-01 2.705528109e-16
    outer loop
      vertex -8.504442800e+01 1.588995766e+02 5.000000000e+01
      vertex -9.508885599e+01 1.531004234e+02 -5.000000000e+01
      vertex -3.504442800e+01 1.877670901e+02 -5.000000000e+01
    endloop
  endfacet
  facet normal -5.000000000e-01 8.660254038e-01 7.378713025e-17
    outer loop
      vertex -2.500000000e+01 5.489957660e+01 -5.000000000e+01
      vertex -3.504442800e+01 4.910042340e+01 5.000000000e+01
      vertex 2.500000000e+01 8.376709006e+01 5.000000000e+01
    endloop
  endfacet
  facet normal 5.000000000e-01 -8.660254038e-01 -4.099285014e-17
    outer loop
      vertex -2.500000000e+01 5.489957660e+01 -5.000000000e+01
      vertex -3.504442800e+01 4.910042340e+01 5.000000000e+01
      vertex -8.504442800e+01 2.023290994e+01 -5.000000000e+01
    endloop
  endfacet
  facet normal 0.000000000e+00 0.000000000e+00 1.000000000e+00
    outer loop
      vertex -1.450888560e+02 1.126346035e+02 5.000000000e+01
      vertex -3.504442800e+01 4.910042340e+01 5.000000000e+01
      vertex 2.500000000e+01 8.376709006e+01 5.000000000e+01
    endloop
  endfacet
  facet normal 0.000000000e+00 0.000000000e+00 -1.000000000e+00
    outer loop
      vertex -1.450888560e+02 1.126346035e+02 5.000000000e+01
      vertex 2.500000000e+01 9.536539648e+01 5.000000000e+01
      vertex 2.500000000e+01 8.376709006e+01 5.000000000e+01
    endloop
  endfacet
  facet normal 0.000000000e+00 0.000000000e+00 1.000000000e+00
    outer loop
      vertex -1.450888560e+02 1.126346035e+02 5.000000000e+01
      vertex -8.504442800e+01 1.588995766e+02 5.000000000e+01
      vertex -1.450888560e+02 1.242329099e+02 5.000000000e+01
    endloop
  endfacet
  facet normal -0.000000000e+00 0.000000000e+00 1.000000000e+00
    outer loop
      vertex -1.450888560e+02 1.126346035e+02 5.000000000e+01
      vertex 2.500000000e+01 9.536539648e+01 5.000000000e+01
      vertex -8.504442800e+01 1.588995766e+02 5.000000000e+01
    endloop
  endfacet
  facet normal 8.944271910e-01 -0.000000000e+00 4.472135955e-01
    outer loop
      vertex -1.450888560e+02 1.126346035e+02 5.000000000e+01
      vertex -9.508885599e+01 1.531004234e+02 -5.000000000e+01
      vertex -1.450888560e+02 1.242329099e+02 5.000000000e+01
    endloop
  endfacet
  facet normal 8.944271910e-01 0.000000000e+00 4.472135955e-01
    outer loop
      vertex -1.450888560e+02 1.126346035e+02 5.000000000e+01
      vertex -9.508885599e+01 2.603206314e+01 -5.000000000e+01
      vertex -9.508885599e+01 1.531004234e+02 -5.000000000e+01
    endloop
  endfacet
  facet normal 4.472135955e-01 7.745966692e-01 -4.472135955e-01
    outer loop
      vertex -1.450888560e+02 1.126346035e+02 5.000000000e+01
      vertex -3.504442800e+01 4.910042340e+01 5.000000000e+01
      vertex -8.504442800e+01 2.023290994e+01 -5.000000000e+01
    endloop
  endfacet
  facet normal -4.472135955e-01 -7.745966692e-01 4.472135955e-01
    outer loop
      vertex -1.450888560e+02 1.126346035e+02 5.000000000e+01
      vertex -9.508885599e+01 2.603206314e+01 -5.000000000e+01
      vertex -8.504442800e+01 2.023290994e+01 -5.000000000e+01
    endloop
  endfacet
  facet normal -0.000000000e+00 0.000000000e+00 -1.000000000e+00
    outer loop
      vertex -2.500000000e+01 1.819679369e+02 -5.000000000e+01
      vertex -9.508885599e+01 1.531004234e+02 -5.000000000e+01
      vertex -3.504442800e+01 1.877670901e+02 -5.000000000e+01
    endloop
  endfacet
  facet normal 0.000000000e+00 -0.000000000e+00 -1.000000000e+00
    outer loop
      vertex -2.500000000e+01 1.819679369e+02 -5.000000000e+01
      vertex -2.500000000e+01 5.489957660e+01 -5.000000000e+01
      vertex -8.504442800e+01 2.023290994e+01 -5.000000000e+01
    endloop
  endfacet
  facet normal 0.000000000e+00 0.000000000e+00 1.000000000e+00
    outer loop
      vertex -2.500000000e+01 1.819679369e+02 -5.000000000e+01
      vertex -9.508885599e+01 2.603206314e+01 -5.000000000e+01
      vertex -8.504442800e+01 2.023290994e+01 -5.000000000e+01
    endloop
  endfacet
  facet normal 0.000000000e+00 0.000000000e+00 -1.000000000e+00
    outer loop
      vertex -2.500000000e+01 1.819679369e+02 -5.000000000e+01
      vertex -9.508885599e+01 2.603206314e+01 -5.000000000e+01
      vertex -9.508885599e+01 1.531004234e+02 -5.000000000e+01
    endloop
  endfacet
  facet normal -4.472135955e-01 -7.745966692e-01 -4.472135955e-01
    outer loop
      vertex -2.500000000e+01 1.819679369e+02 -5.000000000e+01
      vertex -8.504442800e+01 1.588995766e+02 5.000000000e+01
      vertex -3.504442800e+01 1.877670901e+02 -5.000000000e+01
    endloop
  endfacet
  facet normal -4.472135955e-01 -7.745966692e-01 -4.472135955e-01
    outer loop
      vertex -2.500000000e+01 1.819679369e+02 -5.000000000e+01
      vertex 2.500000000e+01 9.536539648e+01 5.000000000e+01
      vertex -8.504442800e+01 1.588995766e+02 5.000000000e+01
    endloop
  endfacet
  facet normal -8.944271910e-01 0.000000000e+00 4.472135955e-01
    outer loop
      vertex -2.500000000e+01 1.819679369e+02 -5.000000000e+01
      vertex -2.500000000e+01 5.489957660e+01 -5.000000000e+01
      vertex 2.500000000e+01 8.376709006e+01 5.000000000e+01
    endloop
  endfacet
  facet normal 8.944271910e-01 0.000000000e+00 -4.472135955e-01
    outer loop
      vertex -2.500000000e+01 1.819679369e+02 -5.000000000e+01
      vertex 2.500000000e+01 9.536539648e+01 5.000000000e+01
      vertex 2.500000000e+01 8.376709006e+01 5.000000000e+01
    endloop
  endfacet
  facet normal -4.472135955e-01 7.745966692e-01 -4.472135955e-01
    outer loop
      vertex -9.508885599e+01 -2.603206314e+01 5.000000000e+01
      vertex -3.504442800e+01 -4.910042340e+01 -5.000000000e+01
      vertex -1.450888560e+02 -1.126346035e+02 -5.000000000e+01
    endloop
  endfacet
  facet normal 4.472135955e-01 -7.745966692e-01 4.472135955e-01
    outer loop
      vertex -9.508885599e+01 -2.603206314e+01 5.000000000e+01
      vertex -3.504442800e+01 -4.910042340e+01 -5.000000000e+01
      vertex -8.504442800e+01 -2.023290994e+01 5.000000000e+01
    endloop
  endfacet
  facet normal 8.944271910e-01 0.000000000e+00 -4.472135955e-01
    outer loop
      vertex -1.450888560e+02 -1.242329099e+02 -5.000000000e+01
      vertex -9.508885599e+01 -2.603206314e+01 5.000000000e+01
      vertex -9.508885599e+01 -1.531004234e+02 5.000000000e+01
    endloop
  endfacet
  facet normal -8.944271910e-01 0.000000000e+00 4.472135955e-01
    outer loop
      vertex -1.450888560e+02 -1.242329099e+02 -5.000000000e+01
      vertex -9.508885599e+01 -2.603206314e+01 5.000000000e+01
      vertex -1.450888560e+02 -1.126346035e+02 -5.000000000e+01
    endloop
  endfacet
  facet normal 5.000000000e-01 8.660254038e-01 6.558856022e-17
    outer loop
      vertex -1.450888560e+02 -1.242329099e+02 -5.000000000e+01
      vertex -9.508885599e+01 -1.531004234e+02 5.000000000e+01
      vertex -3.504442800e+01 -1.877670901e+02 5.000000000e+01
    endloop
  endfacet
  facet normal -5.000000000e-01 -8.660254038e-01 -2.623542409e-16
    outer loop
      vertex -1.450888560e+02 -1.242329099e+02 -5.000000000e+01
      vertex -8.504442800e+01 -1.588995766e+02 -5.000000000e+01
      vertex -3.504442800e+01 -1.877670901e+02 5.000000000e+01
    endloop
  endfacet
  facet normal 0.000000000e+00 0.000000000e+00 1.000000000e+00
    outer loop
      vertex -2.500000000e+01 -1.819679369e+02 5.000000000e+01
      vertex -9.508885599e+01 -1.531004234e+02 5.000000000e+01
      vertex -3.504442800e+01 -1.877670901e+02 5.000000000e+01
    endloop
  endfacet
  facet normal 0.000000000e+00 -0.000000000e+00 1.000000000e+00
    outer loop
      vertex -2.500000000e+01 -1.819679369e+02 5.000000000e+01
      vertex -2.500000000e+01 -5.489957660e+01 5.000000000e+01
      vertex -8.504442800e+01 -2.023290994e+01 5.000000000e+01
    endloop
  endfacet
  facet normal 0.000000000e+00 0.000000000e+00 -1.000000000e+00
    outer loop
      vertex -2.500000000e+01 -1.819679369e+02 5.000000000e+01
      vertex -9.508885599e+01 -2.603206314e+01 5.000000000e+01
      vertex -8.504442800e+01 -2.023290994e+01 5.000000000e+01
    endloop
  endfacet
  facet normal 0.000000000e+00 0.000000000e+00 1.000000000e+00
    outer loop
      vertex -2.500000000e+01 -1.819679369e+02 5.000000000e+01
      vertex -9.508885599e+01 -2.603206314e+01 5.000000000e+01
      vertex -9.508885599e+01 -1.531004234e+02 5.000000000e+01
    endloop
  endfacet
  facet normal 4.472135955e-01 -7.745966692e-01 -4.472135955e-01
    outer loop
      vertex -2.500000000e+01 -1.819679369e+02 5.000000000e+01
      vertex -8.504442800e+01 -1.588995766e+02 -5.000000000e+01
      vertex 2.500000000e+01 -9.536539648e+01 -5.000000000e+01
    endloop
  endfacet
  facet normal -4.472135955e-01 7.745966692e-01 4.472135955e-01
    outer loop
      vertex -2.500000000e+01 -1.819679369e+02 5.000000000e+01
      vertex -8.504442800e+01 -1.588995766e+02 -5.000000000e+01
      vertex -3.504442800e+01 -1.877670901e+02 5.000000000e+01
    endloop
  endfacet
  facet normal 0.000000000e+00 0.000000000e+00 -1.000000000e+00
    outer loop
      vertex 2.500000000e+01 -8.376709006e+01 -5.000000000e+01
      vertex -1.450888560e+02 -1.242329099e+02 -5.000000000e+01
      vertex -1.450888560e+02 -1.126346035e+02 -5.000000000e+01
    endloop
  endfacet
  facet normal 0.000000000e+00 0.000000000e+00 1.000000000e+00
    outer loop
      vertex 2.500000000e+01 -8.376709006e+01 -5.000000000e+01
      vertex -3.504442800e+01 -4.910042340e+01 -5.000000000e+01
      vertex -1.450888560e+02 -1.126346035e+02 -5.000000000e+01
    endloop
  endfacet
  facet normal 0.000000000e+00 0.000000000e+00 1.000000000e+00
    outer loop
      vertex 2.500000000e+01 -8.376709006e+01 -5.000000000e+01
      vertex -8.504442800e+01 -1.588995766e+02 -5.000000000e+01
      vertex 2.500000000e+01 -9.536539648e+01 -5.000000000e+01
    endloop
  endfacet
  facet normal 0.000000000e+00 0.000000000e+00 1.000000000e+00
    outer loop
      vertex 2.500000000e+01 -8.376709006e+01 -5.000000000e+01
      vertex -1.450888560e+02 -1.242329099e+02 -5.000000000e+01
      vertex -8.504442800e+01 -1.588995766e+02 -5.000000000e+01
    endloop
  endfacet
  facet normal -8.944271910e-01 0.000000000e+00 -4.472135955e-01
    outer loop
      vertex 2.500000000e+01 -8.376709006e+01 -5.000000000e+01
      vertex -2.500000000e+01 -1.819679369e+02 5.000000000e+01
      vertex -2.500000000e+01 -5.489957660e+01 5.000000000e+01
    endloop
  endfacet
  facet normal 8.944271910e-01 0.000000000e+00 4.472135955e-01
    outer loop
      vertex 2.500000000e+01 -8.376709006e+01 -5.000000000e+01
      vertex -2.500000000e+01 -1.819679369e+02 5.000000000e+01
      vertex 2.500000000e+01 -9.536539648e+01 -5.000000000e+01
    endloop
  endfacet
  facet normal -5.000000000e-01 -8.660254038e-01 0.000000000e+00
    outer loop
      vertex 2.500000000e+01 -8.376709006e+01 -5.000000000e+01
      vertex -2.500000000e+01 -5.489957660e+01 5.000000000e+01
      vertex -8.504442800e+01 -2.023290994e+01 5.000000000e+01
    endloop
  endfacet
  facet normal 5.000000000e-01 8.660254038e-01 0.000000000e+00
    outer loop
      vertex 2.500000000e+01 -8.376709006e+01 -5.000000000e+01
      vertex -3.504442800e+01 -4.910042340e+01 -5.000000000e+01
      vertex -8.504442800e+01 -2.023290994e+01 5.000000000e+01
    endloop
  endfacet
  facet normal -4.472135955e-01 7.745966692e-01 -4.472135955e-01
    outer loop
      vertex 2.500000000e+01 1.819679369e+02 5.000000000e+01
      vertex 8.504442800e+01 1.588995766e+02 -5.000000000e+01
      vertex -2.500000000e+01 9.536539648e+01 -5.000000000e+01
    endloop
  endfacet
  facet normal 4.472135955e-01 -7.745966692e-01 4.472135955e-01
    outer loop
      vertex 2.500000000e+01 1.819679369e+02 5.000000000e+01
      vertex 8.504442800e+01 1.588995766e+02 -5.000000000e+01
      vertex 3.504442800e+01 1.877670901e+02 5.000000000e+01
    endloop
  endfacet
  facet normal 8.944271910e-01 0.000000000e+00 -4.472135955e-01
    outer loop
      vertex -2.500000000e+01 8.376709006e+01 -5.000000000e+01
      vertex 2.500000000e+01 1.819679369e+02 5.000000000e+01
      vertex 2.500000000e+01 5.489957660e+01 5.000000000e+01
    endloop
  endfacet
  facet normal -8.944271910e-01 0.000000000e+00 4.472135955e-01
    outer loop
      vertex -2.500000000e+01 8.376709006e+01 -5.000000000e+01
      vertex 2.500000000e+01 1.819679369e+02 5.000000000e+01
      vertex -2.500000000e+01 9.536539648e+01 -5.000000000e+01
    endloop
  endfacet
  facet normal 5.000000000e-01 8.660254038e-01 6.558856022e-17
    outer loop
      vertex -2.500000000e+01 8.376709006e+01 -5.000000000e+01
      vertex 2.500000000e+01 5.489957660e+01 5.000000000e+01
      vertex 8.504442800e+01 2.023290994e+01 5.000000000e+01
    endloop
  endfacet
  facet normal -5.000000000e-01 -8.660254038e-01 0.000000000e+00
    outer loop
      vertex -2.500000000e+01 8.376709006e+01 -5.000000000e+01
      vertex 3.504442800e+01 4.910042340e+01 -5.000000000e+01
      vertex 8.504442800e+01 2.023290994e+01 5.000000000e+01
    endloop
  endfacet
  facet normal 0.000000000e+00 0.000000000e+00 -1.000000000e+00
    outer loop
      vertex 9.508885599e+01 2.603206314e+01 5.000000000e+01
      vertex 2.500000000e+01 1.819679369e+02 5.000000000e+01
      vertex 3.504442800e+01 1.877670901e+02 5.000000000e+01
    endloop
  endfacet
  facet normal 0.000000000e+00 0.000000000e+00 1.000000000e+00
    outer loop
      vertex 9.508885599e+01 2.603206314e+01 5.000000000e+01
      vertex 2.500000000e+01 5.489957660e+01 5.000000000e+01
      vertex 8.504442800e+01 2.023290994e+01 5.000000000e+01
    endloop
  endfacet
  facet normal 0.000000000e+00 -0.000000000e+00 1.000000000e+00
    outer loop
      vertex 9.508885599e+01 2.603206314e+01 5.000000000e+01
      vertex 9.508885599e+01 1.531004234e+02 5.000000000e+01
      vertex 3.504442800e+01 1.877670901e+02 5.000000000e+01
    endloop
  endfacet
  facet normal 0.000000000e+00 0.000000000e+00 1.000000000e+00
    outer loop
      vertex 9.508885599e+01 2.603206314e+01 5.000000000e+01
      vertex 2.500000000e+01 1.819679369e+02 5.000000000e+01
      vertex 2.500000000e+01 5.489957660e+01 5.000000000e+01
    endloop
  endfacet
  facet normal 4.472135955e-01 -7.745966692e-01 -4.472135955e-01
    outer loop
      vertex 9.508885599e+01 2.603206314e+01 5.000000000e+01
      vertex 3.504442800e+01 4.910042340e+01 -5.000000000e+01
      vertex 1.450888560e+02 1.126346035e+02 -5.000000000e+01
    endloop
  endfacet
  facet normal -4.472135955e-01 7.745966692e-01 4.472135955e-01
    outer loop
      vertex 9.508885599e+01 2.603206314e+01 5.000000000e+01
      vertex 3.504442800e+01 4.910042340e+01 -5.000000000e+01
      vertex 8.504442800e+01 2.023290994e+01 5.000000000e+01
    endloop
  endfacet
  facet normal 0.000000000e+00 0.000000000e+00 1.000000000e+00
    outer loop
      vertex 1.450888560e+02 1.242329099e+02 -5.000000000e+01
      vertex 3.504442800e+01 4.910042340e+01 -5.000000000e+01
      vertex 1.450888560e+02 1.126346035e+02 -5.000000000e+01
    endloop
  endfacet
  facet normal 0.000000000e+00 0.000000000e+00 1.000000000e+00
    outer loop
      vertex 1.450888560e+02 1.242329099e+02 -5.000000000e+01
      vertex 8.504442800e+01 1.588995766e+02 -5.000000000e+01
      vertex -2.500000000e+01 9.536539648e+01 -5.000000000e+01
    endloop
  endfacet
  facet normal 0.000000000e+00 0.000000000e+00 -1.000000000e+00
    outer loop
      vertex 1.450888560e+02 1.242329099e+02 -5.000000000e+01
      vertex -2.500000000e+01 8.376709006e+01 -5.000000000e+01
      vertex -2.500000000e+01 9.536539648e+01 -5.000000000e+01
    endloop
  endfacet
  facet normal 0.000000000e+00 0.000000000e+00 1.000000000e+00
    outer loop
      vertex 1.450888560e+02 1.242329099e+02 -5.000000000e+01
      vertex -2.500000000e+01 8.376709006e+01 -5.000000000e+01
      vertex 3.504442800e+01 4.910042340e+01 -5.000000000e+01
    endloop
  endfacet
  facet normal -8.944271910e-01 0.000000000e+00 -4.472135955e-01
    outer loop
      vertex 1.450888560e+02 1.242329099e+02 -5.000000000e+01
      vertex 9.508885599e+01 2.603206314e+01 5.000000000e+01
      vertex 9.508885599e+01 1.531004234e+02 5.000000000e+01
    endloop
  endfacet
  facet normal 8.944271910e-01 0.000000000e+00 4.472135955e-01
    outer loop
      vertex 1.450888560e+02 1.242329099e+02 -5.000000000e+01
      vertex 9.508885599e+01 2.603206314e+01 5.000000000e+01
      vertex 1.450888560e+02 1.126346035e+02 -5.000000000e+01
    endloop
  endfacet
  facet normal -5.000000000e-01 -8.660254038e-01 6.558856022e-17
    outer loop
      vertex 1.450888560e+02 1.242329099e+02 -5.000000000e+01
      vertex 9.508885599e+01 1.531004234e+02 5.000000000e+01
      vertex 3.504442800e+01 1.877670901e+02 5.000000000e+01
    endloop
  endfacet
  facet normal 5.000000000e-01 8.660254038e-01 -3.279428011e-16
    outer loop
      vertex 1.450888560e+02 1.242329099e+02 -5.000000000e+01
      vertex 8.504442800e+01 1.588995766e+02 -5.000000000e+01
      vertex 3.504442800e+01 1.877670901e+02 5.000000000e+01
    endloop
  endfacet
  facet normal -5.000000000e-01 8.660254038e-01 -4.099285014e-17
    outer loop
      vertex 3.504442800e+01 -4.910042340e+01 5.000000000e+01
      vertex 2.500000000e+01 -5.489957660e+01 -5.000000000e+01
      vertex -2.500000000e+01 -8.376709006e+01 5.000000000e+01
    endloop
  endfacet
  facet normal 5.000000000e-01 -8.660254038e-01 2.459571008e-17
    outer loop
      vertex 3.504442800e+01 -4.910042340e+01 5.000000000e+01
      vertex 2.500000000e+01 -5.489957660e+01 -5.000000000e+01
      vertex 8.504442800e+01 -2.023290994e+01 -5.000000000e+01
    endloop
  endfacet
  facet normal -5.000000000e-01 8.660254038e-01 -6.558856022e-17
    outer loop
      vertex 9.508885599e+01 -1.531004234e+02 -5.000000000e+01
      vertex 8.504442800e+01 -1.588995766e+02 5.000000000e+01
      vertex 1.450888560e+02 -1.242329099e+02 5.000000000e+01
    endloop
  endfacet
  facet normal 5.000000000e-01 -8.660254038e-01 9.018427031e-17
    outer loop
      vertex 9.508885599e+01 -1.531004234e+02 -5.000000000e+01
      vertex 8.504442800e+01 -1.588995766e+02 5.000000000e+01
      vertex 3.504442800e+01 -1.877670901e+02 -5.000000000e+01
    endloop
  endfacet
  facet normal 0.000000000e+00 0.000000000e+00 1.000000000e+00
    outer loop
      vertex -2.500000000e+01 -9.536539648e+01 5.000000000e+01
      vertex 8.504442800e+01 -1.588995766e+02 5.000000000e+01
      vertex 1.450888560e+02 -1.242329099e+02 5.000000000e+01
    endloop
  endfacet
  facet normal 0.000000000e+00 0.000000000e+00 -1.000000000e+00
    outer loop
      vertex -2.500000000e+01 -9.536539648e+01 5.000000000e+01
      vertex 1.450888560e+02 -1.126346035e+02 5.000000000e+01
      vertex 1.450888560e+02 -1.242329099e+02 5.000000000e+01
    endloop
  endfacet
  facet normal 0.000000000e+00 0.000000000e+00 1.000000000e+00
    outer loop
      vertex -2.500000000e+01 -9.536539648e+01 5.000000000e+01
      vertex 3.504442800e+01 -4.910042340e+01 5.000000000e+01
      vertex -2.500000000e+01 -8.376709006e+01 5.000000000e+01
    endloop
  endfacet
  facet normal -0.000000000e+00 0.000000000e+00 1.000000000e+00
    outer loop
      vertex -2.500000000e+01 -9.536539648e+01 5.000000000e+01
      vertex 1.450888560e+02 -1.126346035e+02 5.000000000e+01
      vertex 3.504442800e+01 -4.910042340e+01 5.000000000e+01
    endloop
  endfacet
  facet normal 8.944271910e-01 -0.000000000e+00 4.472135955e-01
    outer loop
      vertex -2.500000000e+01 -9.536539648e+01 5.000000000e+01
      vertex 2.500000000e+01 -5.489957660e+01 -5.000000000e+01
      vertex -2.500000000e+01 -8.376709006e+01 5.000000000e+01
    endloop
  endfacet
  facet normal 8.944271910e-01 0.000000000e+00 4.472135955e-01
    outer loop
      vertex -2.500000000e+01 -9.536539648e+01 5.000000000e+01
      vertex 2.500000000e+01 -1.819679369e+02 -5.000000000e+01
      vertex 2.500000000e+01 -5.489957660e+01 -5.000000000e+01
    endloop
  endfacet
  facet normal 4.472135955e-01 7.745966692e-01 -4.472135955e-01
    outer loop
      vertex -2.500000000e+01 -9.536539648e+01 5.000000000e+01
      vertex 8.504442800e+01 -1.588995766e+02 5.000000000e+01
      vertex 3.504442800e+01 -1.877670901e+02 -5.000000000e+01
    endloop
  endfacet
  facet normal -4.472135955e-01 -7.745966692e-01 4.472135955e-01
    outer loop
      vertex -2.500000000e+01 -9.536539648e+01 5.000000000e+01
      vertex 2.500000000e+01 -1.819679369e+02 -5.000000000e+01
      vertex 3.504442800e+01 -1.877670901e+02 -5.000000000e+01
    endloop
  endfacet
  facet normal -0.000000000e+00 0.000000000e+00 -1.000000000e+00
    outer loop
      vertex 9.508885599e+01 -2.603206314e+01 -5.000000000e+01
      vertex 2.500000000e+01 -5.489957660e+01 -5.000000000e+01
      vertex 8.504442800e+01 -2.023290994e+01 -5.000000000e+01
    endloop
  endfacet
  facet normal 0.000000000e+00 -0.000000000e+00 -1.000000000e+00
    outer loop
      vertex 9.508885599e+01 -2.603206314e+01 -5.000000000e+01
      vertex 9.508885599e+01 -1.531004234e+02 -5.000000000e+01
      vertex 3.504442800e+01 -1.877670901e+02 -5.000000000e+01
    endloop
  endfacet
  facet normal 0.000000000e+00 0.000000000e+00 1.000000000e+00
    outer loop
      vertex 9.508885599e+01 -2.603206314e+01 -5.000000000e+01
      vertex 2.500000000e+01 -1.819679369e+02 -5.000000000e+01
      vertex 3.504442800e+01 -1.877670901e+02 -5.000000000e+01
    endloop
  endfacet
  facet normal 0.000000000e+00 0.000000000e+00 -1.000000000e+00
    outer loop
      vertex 9.508885599e+01 -2.603206314e+01 -5.000000000e+01
      vertex 2.500000000e+01 -1.819679369e+02 -5.000000000e+01
      vertex 2.500000000e+01 -5.489957660e+01 -5.000000000e+01
    endloop
  endfacet
  facet normal -4.472135955e-01 -7.745966692e-01 -4.472135955e-01
    outer loop
      vertex 9.508885599e+01 -2.603206314e+01 -5.000000000e+01
      vertex 3.504442800e+01 -4.910042340e+01 5.000000000e+01
      vertex 8.504442800e+01 -2.023290994e+01 -5.000000000e+01
    endloop
  endfacet
  facet normal -4.472135955e-01 -7.745966692e-01 -4.472135955e-01
    outer loop
      vertex 9.508885599e+01 -2.603206314e+01 -5.000000000e+01
      vertex 1.450888560e+02 -1.126346035e+02 5.000000000e+01
      vertex 3.504442800e+01 -4.910042340e+01 5.000000000e+01
    endloop
  endfacet
  facet normal -8.944271910e-01 0.000000000e+00 4.472135955e-01
    outer loop
      vertex 9.508885599e+01 -2.603206314e+01 -5.000000000e+01
      vertex 9.508885599e+01 -1.531004234e+02 -5.000000000e+01
      vertex 1.450888560e+02 -1.242329099e+02 5.000000000e+01
    endloop
  endfacet
  facet normal 8.944271910e-01 0.000000000e+00 -4.472135955e-01
    outer loop
      vertex 9.508885599e+01 -2.603206314e+01 -5.000000000e+01
      vertex 1.450888560e+02 -1.126346035e+02 5.000000000e+01
      vertex 1.450888560e+02 -1.242329099e+02 5.000000000e+01
    endloop
  endfacet
  facet normal -1.000000000e+00 1.024821254e-16 -1.188619092e-17
    outer loop
      vertex 6.004442800e+01 5.799153207e+00 5.000000000e+01
      vertex 6.004442800e+01 -5.799153207e+00 -5.000000000e+01
      vertex 6.004442800e+01 -6.353418013e+01 5.000000000e+01
    endloop
  endfacet
  facet normal 1.000000000e+00 -1.024821254e-16 1.188619092e-17
    outer loop
      vertex 6.004442800e+01 5.799153207e+00 5.000000000e+01
      vertex 6.004442800e+01 -5.799153207e+00 -5.000000000e+01
      vertex 6.004442800e+01 6.353418013e+01 -5.000000000e+01
    endloop
  endfacet
  facet normal 4.472135955e-01 7.745966692e-01 -4.472135955e-01
    outer loop
      vertex 7.008885599e+01 6.933333333e+01 -5.000000000e+01
      vertex 1.700888560e+02 6.933333333e+01 5.000000000e+01
      vertex 1.801332840e+02 6.353418013e+01 5.000000000e+01
    endloop
  endfacet
  facet normal -4.472135955e-01 -7.745966692e-01 4.472135955e-01
    outer loop
      vertex 7.008885599e+01 6.933333333e+01 -5.000000000e+01
      vertex 1.801332840e+02 5.799153207e+00 -5.000000000e+01
      vertex 1.801332840e+02 6.353418013e+01 5.000000000e+01
    endloop
  endfacet
  facet normal -4.472135955e-01 7.745966692e-01 4.472135955e-01
    outer loop
      vertex 7.008885599e+01 6.933333333e+01 -5.000000000e+01
      vertex 6.004442800e+01 5.799153207e+00 5.000000000e+01
      vertex 1.700888560e+02 6.933333333e+01 5.000000000e+01
    endloop
  endfacet
  facet normal 4.472135955e-01 -7.745966692e-01 -4.472135955e-01
    outer loop
      vertex 7.008885599e+01 6.933333333e+01 -5.000000000e+01
      vertex 6.004442800e+01 5.799153207e+00 5.000000000e+01
      vertex 6.004442800e+01 6.353418013e+01 -5.000000000e+01
    endloop
  endfacet
  facet normal 0.000000000e+00 0.000000000e+00 -1.000000000e+00
    outer loop
      vertex 7.008885599e+01 -6.933333333e+01 5.000000000e+01
      vertex 1.700888560e+02 6.933333333e+01 5.000000000e+01
      vertex 1.801332840e+02 6.353418013e+01 5.000000000e+01
    endloop
  endfacet
  facet normal 0.000000000e+00 0.000000000e+00 1.000000000e+00
    outer loop
      vertex 7.008885599e+01 -6.933333333e+01 5.000000000e+01
      vertex 6.004442800e+01 5.799153207e+00 5.000000000e+01
      vertex 6.004442800e+01 -6.353418013e+01 5.000000000e+01
    endloop
  endfacet
  facet normal 0.000000000e+00 0.000000000e+00 1.000000000e+00
    outer loop
      vertex 7.008885599e+01 -6.933333333e+01 5.000000000e+01
      vertex 1.801332840e+02 -5.799153207e+00 5.000000000e+01
      vertex 1.801332840e+02 6.353418013e+01 5.000000000e+01
    endloop
  endfacet
  facet normal 0.000000000e+00 0.000000000e+00 -1.000000000e+00
    outer loop
      vertex 7.008885599e+01 -6.933333333e+01 5.000000000e+01
      vertex 6.004442800e+01 5.799153207e+00 5.000000000e+01
      vertex 1.700888560e+02 6.933333333e+01 5.000000000e+01
    endloop
  endfacet
  facet normal 4.472135955e-01 7.745966692e-01 4.472135955e-01
    outer loop
      vertex 7.008885599e+01 -6.933333333e+01 5.000000000e+01
      vertex 6.004442800e+01 -5.799153207e+00 -5.000000000e+01
      vertex 6.004442800e+01 -6.353418013e+01 5.000000000e+01
    endloop
  endfacet
  facet normal 4.472135955e-01 7.745966692e-01 4.472135955e-01
    outer loop
      vertex 7.008885599e+01 -6.933333333e+01 5.000000000e+01
      vertex 1.700888560e+02 -6.933333333e+01 -5.000000000e+01
      vertex 6.004442800e+01 -5.799153207e+00 -5.000000000e+01
    endloop
  endfacet
  facet normal 0.000000000e+00 0.000000000e+00 -1.000000000e+00
    outer loop
      vertex 1.801332840e+02 -6.353418013e+01 -5.000000000e+01
      vertex 6.004442800e+01 -5.799153207e+00 -5.000000000e+01
      vertex 6.004442800e+01 6.353418013e+01 -5.000000000e+01
    endloop
  endfacet
  facet normal 0.000000000e+00 0.000000000e+00 -1.000000000e+00
    outer loop
      vertex 1.801332840e+02 -6.353418013e+01 -5.000000000e+01
      vertex 7.008885599e+01 6.933333333e+01 -5.000000000e+01
      vertex 1.801332840e+02 5.799153207e+00 -5.000000000e+01
    endloop
  endfacet
  facet normal 0.000000000e+00 0.000000000e+00 1.000000000e+00
    outer loop
      vertex 1.801332840e+02 -6.353418013e+01 -5.000000000e+01
      vertex 7.008885599e+01 6.933333333e+01 -5.000000000e+01
      vertex 6.004442800e+01 6.353418013e+01 -5.000000000e+01
    endloop
  endfacet
  facet normal -0.000000000e+00 0.000000000e+00 -1.000000000e+00
    outer loop
      vertex 1.801332840e+02 -6.353418013e+01 -5.000000000e+01
      vertex 1.700888560e+02 -6.933333333e+01 -5.000000000e+01
      vertex 6.004442800e+01 -5.799153207e+00 -5.000000000e+01
    endloop
  endfacet
  facet normal -1.000000000e+00 0.000000000e+00 0.000000000e+00
    outer loop
      vertex 1.801332840e+02 -6.353418013e+01 -5.000000000e+01
      vertex 1.801332840e+02 -5.799153207e+00 5.000000000e+01
      vertex 1.801332840e+02 6.353418013e+01 5.000000000e+01
    endloop
  endfacet
  facet normal 1.000000000e+00 0.000000000e+00 0.000000000e+00
    outer loop
      vertex 1.801332840e+02 -6.353418013e+01 -5.000000000e+01
      vertex 1.801332840e+02 5.799153207e+00 -5.000000000e+01
      vertex 1.801332840e+02 6.353418013e+01 5.000000000e+01
    endloop
  endfacet
  facet normal -4.472135955e-01 7.745966692e-01 -4.472135955e-01
    outer loop
      vertex 1.801332840e+02 -6.353418013e+01 -5.000000000e+01
      vertex 7.008885599e+01 -6.933333333e+01 5.000000000e+01
      vertex 1.801332840e+02 -5.799153207e+00 5.000000000e+01
    endloop
  endfacet
  facet normal 4.472135955e-01 -7.745966692e-01 4.472135955e-01
    outer loop
      vertex 1.801332840e+02 -6.353418013e+01 -5.000000000e+01
      vertex 7.008885599e+01 -6.933333333e+01 5.000000000e+01
      vertex 1.700888560e+02 -6.933333333e+01 -5.000000000e+01
    endloop
  endfacet
endsolid bf8_sls
